<svg width="693" height="299" viewBox="0 0 693 299" 
style="background:white;" fill="none" xmlns="http://www.w3.org/2000/svg">
<path d="M144.547 66V43.9922H137.562V40.6406H144.547V38.8594C144.547 37.2344 144.781 35.8125 145.25 34.5938C145.734 33.3594 146.406 32.3281 147.266 31.5C148.141 30.6719 149.188 30.0469 150.406 29.625C151.625 29.2031 152.984 28.9922 154.484 28.9922C155.516 28.9922 156.516 29.0781 157.484 29.25C158.469 29.4219 159.477 29.6406 160.508 29.9062L159.992 33.4922C159.352 33.2734 158.602 33.0859 157.742 32.9297C156.898 32.7578 155.992 32.6719 155.023 32.6719C152.992 32.6875 151.461 33.2031 150.43 34.2188C149.414 35.2344 148.906 36.7812 148.906 38.8594V40.6406H158.68V43.9922H148.906V66H144.547ZM183.359 62.5078C182.516 63.7578 181.461 64.7344 180.195 65.4375C178.93 66.125 177.469 66.4688 175.812 66.4688C174.484 66.4688 173.281 66.2656 172.203 65.8594C171.125 65.4375 170.203 64.7891 169.438 63.9141C168.672 63.0391 168.078 61.9297 167.656 60.5859C167.25 59.2266 167.047 57.6016 167.047 55.7109V40.6406H171.383V55.7578C171.383 57.1328 171.492 58.2734 171.711 59.1797C171.93 60.0859 172.258 60.8125 172.695 61.3594C173.133 61.8906 173.664 62.2656 174.289 62.4844C174.93 62.7031 175.664 62.8125 176.492 62.8125C178.258 62.8125 179.68 62.4531 180.758 61.7344C181.852 61.0156 182.664 60.0469 183.195 58.8281V40.6406H187.555V66H183.617L183.359 62.5078ZM199.625 40.6406L199.93 44.3906C200.852 43.0781 201.984 42.0547 203.328 41.3203C204.672 40.5703 206.172 40.1875 207.828 40.1719C209.156 40.1719 210.359 40.3594 211.438 40.7344C212.531 41.1094 213.461 41.6953 214.227 42.4922C214.992 43.2891 215.578 44.3047 215.984 45.5391C216.406 46.7578 216.617 48.2109 216.617 49.8984V66H212.281V49.9922C212.281 48.8672 212.156 47.9141 211.906 47.1328C211.656 46.3516 211.281 45.7188 210.781 45.2344C210.297 44.75 209.695 44.3984 208.977 44.1797C208.273 43.9609 207.461 43.8516 206.539 43.8516C205.086 43.8516 203.805 44.2188 202.695 44.9531C201.602 45.6719 200.727 46.625 200.07 47.8125V66H195.734V40.6406H199.625ZM235.367 62.9531C236.148 62.9531 236.906 62.8281 237.641 62.5781C238.391 62.3281 239.055 61.9844 239.633 61.5469C240.211 61.0938 240.672 60.5703 241.016 59.9766C241.375 59.3672 241.562 58.7109 241.578 58.0078H245.68C245.664 59.1328 245.367 60.2109 244.789 61.2422C244.227 62.2578 243.469 63.1562 242.516 63.9375C241.562 64.7031 240.469 65.3203 239.234 65.7891C238 66.2422 236.711 66.4688 235.367 66.4688C233.445 66.4688 231.766 66.125 230.328 65.4375C228.891 64.75 227.688 63.8281 226.719 62.6719C225.766 61.5 225.047 60.1562 224.562 58.6406C224.078 57.1094 223.836 55.5 223.836 53.8125V52.8281C223.836 51.1562 224.078 49.5547 224.562 48.0234C225.047 46.4922 225.766 45.1484 226.719 43.9922C227.688 42.8203 228.891 41.8906 230.328 41.2031C231.766 40.5156 233.445 40.1719 235.367 40.1719C236.867 40.1719 238.242 40.4141 239.492 40.8984C240.758 41.3672 241.844 42.0156 242.75 42.8438C243.672 43.6562 244.391 44.625 244.906 45.75C245.422 46.875 245.68 48.0781 245.68 49.3594H241.578C241.562 48.5938 241.391 47.875 241.062 47.2031C240.75 46.5156 240.32 45.9141 239.773 45.3984C239.227 44.8828 238.57 44.4766 237.805 44.1797C237.055 43.8828 236.242 43.7344 235.367 43.7344C234.023 43.7344 232.891 44.0078 231.969 44.5547C231.062 45.0859 230.328 45.7891 229.766 46.6641C229.203 47.5234 228.797 48.4922 228.547 49.5703C228.312 50.6484 228.195 51.7344 228.195 52.8281V53.8125C228.195 54.9219 228.312 56.0234 228.547 57.1172C228.797 58.1953 229.195 59.1719 229.742 60.0469C230.305 60.9062 231.039 61.6094 231.945 62.1562C232.867 62.6875 234.008 62.9531 235.367 62.9531ZM263.656 34.5V40.6406H273.312V43.9922H263.656V57.7734C263.656 58.7578 263.781 59.5703 264.031 60.2109C264.281 60.8516 264.625 61.3672 265.062 61.7578C265.5 62.1328 266 62.3984 266.562 62.5547C267.141 62.7109 267.75 62.7891 268.391 62.7891C268.859 62.7891 269.344 62.7656 269.844 62.7188C270.344 62.6562 270.828 62.5859 271.297 62.5078C271.781 62.4297 272.227 62.3516 272.633 62.2734C273.055 62.1797 273.398 62.1016 273.664 62.0391L274.273 65.1094C273.914 65.3281 273.477 65.5234 272.961 65.6953C272.445 65.8516 271.883 65.9844 271.273 66.0938C270.664 66.2188 270.016 66.3125 269.328 66.375C268.656 66.4375 267.984 66.4688 267.312 66.4688C266.188 66.4688 265.133 66.3125 264.148 66C263.18 65.6719 262.336 65.1641 261.617 64.4766C260.898 63.7734 260.328 62.875 259.906 61.7812C259.5 60.6719 259.297 59.3359 259.297 57.7734V43.9922H252.641V40.6406H259.297V34.5H263.656ZM282.898 40.6406H295.859V62.25H304.133V66H282.898V62.25H291.523V44.4141H282.898V40.6406ZM290.961 33.9844C290.961 33.2656 291.172 32.6641 291.594 32.1797C292.031 31.6797 292.688 31.4297 293.562 31.4297C294.422 31.4297 295.07 31.6797 295.508 32.1797C295.945 32.6641 296.164 33.2656 296.164 33.9844C296.164 34.6875 295.945 35.2734 295.508 35.7422C295.07 36.2109 294.422 36.4453 293.562 36.4453C292.688 36.4453 292.031 36.2109 291.594 35.7422C291.172 35.2734 290.961 34.6875 290.961 33.9844ZM309.828 53.0859C309.828 51.2578 310.094 49.5625 310.625 48C311.156 46.4219 311.914 45.0547 312.898 43.8984C313.898 42.7422 315.109 41.8359 316.531 41.1797C317.953 40.5078 319.555 40.1719 321.336 40.1719C323.133 40.1719 324.742 40.5078 326.164 41.1797C327.602 41.8359 328.812 42.7422 329.797 43.8984C330.797 45.0547 331.562 46.4219 332.094 48C332.625 49.5625 332.891 51.2578 332.891 53.0859V53.6016C332.891 55.4297 332.625 57.125 332.094 58.6875C331.562 60.25 330.797 61.6094 329.797 62.7656C328.812 63.9219 327.609 64.8281 326.188 65.4844C324.766 66.1406 323.164 66.4688 321.383 66.4688C319.586 66.4688 317.969 66.1406 316.531 65.4844C315.109 64.8281 313.898 63.9219 312.898 62.7656C311.914 61.6094 311.156 60.25 310.625 58.6875C310.094 57.125 309.828 55.4297 309.828 53.6016V53.0859ZM314.164 53.6016C314.164 54.8516 314.312 56.0469 314.609 57.1875C314.906 58.3125 315.352 59.3047 315.945 60.1641C316.555 61.0234 317.312 61.7031 318.219 62.2031C319.125 62.7031 320.18 62.9531 321.383 62.9531C322.57 62.9531 323.609 62.7031 324.5 62.2031C325.406 61.7031 326.156 61.0234 326.75 60.1641C327.359 59.3047 327.812 58.3125 328.109 57.1875C328.406 56.0469 328.555 54.8516 328.555 53.6016V53.0859C328.555 51.8516 328.398 50.6719 328.086 49.5469C327.789 48.4062 327.336 47.4062 326.727 46.5469C326.133 45.6875 325.383 45.0078 324.477 44.5078C323.586 43.9922 322.539 43.7344 321.336 43.7344C320.133 43.7344 319.086 43.9922 318.195 44.5078C317.305 45.0078 316.555 45.6875 315.945 46.5469C315.352 47.4062 314.906 48.4062 314.609 49.5469C314.312 50.6719 314.164 51.8516 314.164 53.0859V53.6016ZM343.766 40.6406L344.07 44.3906C344.992 43.0781 346.125 42.0547 347.469 41.3203C348.812 40.5703 350.312 40.1875 351.969 40.1719C353.297 40.1719 354.5 40.3594 355.578 40.7344C356.672 41.1094 357.602 41.6953 358.367 42.4922C359.133 43.2891 359.719 44.3047 360.125 45.5391C360.547 46.7578 360.758 48.2109 360.758 49.8984V66H356.422V49.9922C356.422 48.8672 356.297 47.9141 356.047 47.1328C355.797 46.3516 355.422 45.7188 354.922 45.2344C354.438 44.75 353.836 44.3984 353.117 44.1797C352.414 43.9609 351.602 43.8516 350.68 43.8516C349.227 43.8516 347.945 44.2188 346.836 44.9531C345.742 45.6719 344.867 46.625 344.211 47.8125V66H339.875V40.6406H343.766Z" fill="#551A8B"/>
<path d="M407.797 34.5V40.6406H417.453V43.9922H407.797V57.7734C407.797 58.7578 407.922 59.5703 408.172 60.2109C408.422 60.8516 408.766 61.3672 409.203 61.7578C409.641 62.1328 410.141 62.3984 410.703 62.5547C411.281 62.7109 411.891 62.7891 412.531 62.7891C413 62.7891 413.484 62.7656 413.984 62.7188C414.484 62.6562 414.969 62.5859 415.438 62.5078C415.922 62.4297 416.367 62.3516 416.773 62.2734C417.195 62.1797 417.539 62.1016 417.805 62.0391L418.414 65.1094C418.055 65.3281 417.617 65.5234 417.102 65.6953C416.586 65.8516 416.023 65.9844 415.414 66.0938C414.805 66.2188 414.156 66.3125 413.469 66.375C412.797 66.4375 412.125 66.4688 411.453 66.4688C410.328 66.4688 409.273 66.3125 408.289 66C407.32 65.6719 406.477 65.1641 405.758 64.4766C405.039 63.7734 404.469 62.875 404.047 61.7812C403.641 60.6719 403.438 59.3359 403.438 57.7734V43.9922H396.781V40.6406H403.438V34.5H407.797ZM430.695 44.4141C431.602 43.0859 432.719 42.0547 434.047 41.3203C435.375 40.5703 436.867 40.1875 438.523 40.1719C439.852 40.1719 441.055 40.3672 442.133 40.7578C443.227 41.1328 444.156 41.7266 444.922 42.5391C445.688 43.3516 446.273 44.3828 446.68 45.6328C447.102 46.8672 447.312 48.3359 447.312 50.0391V66H442.977V49.9922C442.977 47.9141 442.477 46.3672 441.477 45.3516C440.492 44.3359 439.078 43.8359 437.234 43.8516C435.844 43.8516 434.578 44.1953 433.438 44.8828C432.312 45.5547 431.398 46.4531 430.695 47.5781V66H426.359V30H430.695V44.4141ZM455.867 40.6406H468.828V62.25H477.102V66H455.867V62.25H464.492V44.4141H455.867V40.6406ZM463.93 33.9844C463.93 33.2656 464.141 32.6641 464.562 32.1797C465 31.6797 465.656 31.4297 466.531 31.4297C467.391 31.4297 468.039 31.6797 468.477 32.1797C468.914 32.6641 469.133 33.2656 469.133 33.9844C469.133 34.6875 468.914 35.2734 468.477 35.7422C468.039 36.2109 467.391 36.4453 466.531 36.4453C465.656 36.4453 465 36.2109 464.562 35.7422C464.141 35.2734 463.93 34.6875 463.93 33.9844ZM487.906 40.6406L488.211 44.3906C489.133 43.0781 490.266 42.0547 491.609 41.3203C492.953 40.5703 494.453 40.1875 496.109 40.1719C497.438 40.1719 498.641 40.3594 499.719 40.7344C500.812 41.1094 501.742 41.6953 502.508 42.4922C503.273 43.2891 503.859 44.3047 504.266 45.5391C504.688 46.7578 504.898 48.2109 504.898 49.8984V66H500.562V49.9922C500.562 48.8672 500.438 47.9141 500.188 47.1328C499.938 46.3516 499.562 45.7188 499.062 45.2344C498.578 44.75 497.977 44.3984 497.258 44.1797C496.555 43.9609 495.742 43.8516 494.82 43.8516C493.367 43.8516 492.086 44.2188 490.977 44.9531C489.883 45.6719 489.008 46.625 488.352 47.8125V66H484.016V40.6406H487.906ZM512.047 53.1094C512.047 51.2188 512.273 49.4844 512.727 47.9062C513.195 46.3125 513.867 44.9453 514.742 43.8047C515.617 42.6641 516.68 41.7734 517.93 41.1328C519.18 40.4922 520.594 40.1719 522.172 40.1719C523.734 40.1719 525.102 40.4531 526.273 41.0156C527.461 41.5625 528.469 42.3594 529.297 43.4062L529.508 40.6406H533.445V65.4609C533.445 67.1328 533.18 68.6172 532.648 69.9141C532.133 71.2109 531.398 72.3125 530.445 73.2188C529.508 74.125 528.383 74.8125 527.07 75.2812C525.758 75.75 524.305 75.9844 522.711 75.9844C522.055 75.9844 521.305 75.9062 520.461 75.75C519.617 75.6094 518.758 75.3672 517.883 75.0234C517.023 74.6953 516.188 74.25 515.375 73.6875C514.578 73.125 513.891 72.4297 513.312 71.6016L515.562 69C516.094 69.6406 516.641 70.1797 517.203 70.6172C517.766 71.0703 518.336 71.4297 518.914 71.6953C519.492 71.9609 520.07 72.1484 520.648 72.2578C521.227 72.3828 521.805 72.4453 522.383 72.4453C523.414 72.4453 524.344 72.2969 525.172 72C526 71.7031 526.703 71.2656 527.281 70.6875C527.875 70.125 528.328 69.4219 528.641 68.5781C528.953 67.7344 529.109 66.7656 529.109 65.6719V63.4922C528.266 64.4609 527.266 65.2031 526.109 65.7188C524.969 66.2188 523.641 66.4688 522.125 66.4688C520.578 66.4688 519.18 66.1406 517.93 65.4844C516.68 64.8281 515.617 63.9219 514.742 62.7656C513.883 61.6094 513.219 60.25 512.75 58.6875C512.281 57.1094 512.047 55.4141 512.047 53.6016V53.1094ZM516.383 53.6016C516.383 54.8359 516.508 56.0078 516.758 57.1172C517.023 58.2266 517.43 59.2031 517.977 60.0469C518.539 60.8906 519.25 61.5625 520.109 62.0625C520.969 62.5469 522 62.7891 523.203 62.7891C523.953 62.7891 524.625 62.7031 525.219 62.5312C525.828 62.3438 526.367 62.0859 526.836 61.7578C527.32 61.4297 527.75 61.0391 528.125 60.5859C528.5 60.1328 528.828 59.6328 529.109 59.0859V47.4609C528.828 46.9297 528.5 46.4453 528.125 46.0078C527.75 45.5703 527.32 45.1953 526.836 44.8828C526.352 44.5547 525.812 44.3047 525.219 44.1328C524.625 43.9453 523.969 43.8516 523.25 43.8516C522.031 43.8516 520.984 44.1016 520.109 44.6016C519.25 45.1016 518.539 45.7812 517.977 46.6406C517.43 47.4844 517.023 48.4688 516.758 49.5938C516.508 50.7031 516.383 51.875 516.383 53.1094V53.6016ZM558.523 59.2734C558.523 58.7578 558.422 58.2969 558.219 57.8906C558.016 57.4688 557.672 57.0859 557.188 56.7422C556.703 56.3984 556.062 56.0859 555.266 55.8047C554.469 55.5078 553.477 55.2422 552.289 55.0078C550.836 54.7109 549.508 54.3516 548.305 53.9297C547.117 53.5078 546.094 53.0078 545.234 52.4297C544.391 51.8359 543.734 51.1484 543.266 50.3672C542.797 49.5703 542.562 48.6484 542.562 47.6016C542.562 46.5703 542.805 45.6094 543.289 44.7188C543.773 43.8125 544.453 43.0234 545.328 42.3516C546.203 41.6797 547.242 41.1484 548.445 40.7578C549.664 40.3672 551 40.1719 552.453 40.1719C554.016 40.1719 555.422 40.375 556.672 40.7812C557.922 41.1875 558.984 41.75 559.859 42.4688C560.734 43.1875 561.406 44.0312 561.875 45C562.359 45.9531 562.602 46.9844 562.602 48.0938H558.266C558.266 47.5469 558.125 47.0156 557.844 46.5C557.562 45.9688 557.172 45.5 556.672 45.0938C556.172 44.6875 555.562 44.3594 554.844 44.1094C554.141 43.8594 553.344 43.7344 552.453 43.7344C551.531 43.7344 550.719 43.8359 550.016 44.0391C549.328 44.2422 548.75 44.5156 548.281 44.8594C547.828 45.2031 547.484 45.6016 547.25 46.0547C547.016 46.5078 546.898 46.9766 546.898 47.4609C546.898 47.9609 546.992 48.4062 547.18 48.7969C547.367 49.1875 547.688 49.5391 548.141 49.8516C548.609 50.1641 549.227 50.4453 549.992 50.6953C550.773 50.9453 551.758 51.1875 552.945 51.4219C554.508 51.75 555.906 52.1328 557.141 52.5703C558.375 52.9922 559.414 53.5078 560.258 54.1172C561.102 54.7109 561.742 55.4062 562.18 56.2031C562.633 57 562.859 57.9219 562.859 58.9688C562.859 60.0938 562.602 61.1172 562.086 62.0391C561.586 62.9609 560.883 63.75 559.977 64.4062C559.07 65.0625 557.984 65.5703 556.719 65.9297C555.453 66.2891 554.07 66.4688 552.57 66.4688C550.852 66.4688 549.32 66.2422 547.977 65.7891C546.633 65.3203 545.492 64.7109 544.555 63.9609C543.633 63.1953 542.922 62.3125 542.422 61.3125C541.938 60.3125 541.695 59.2734 541.695 58.1953H546.031C546.094 59.0859 546.328 59.8359 546.734 60.4453C547.156 61.0547 547.672 61.5469 548.281 61.9219C548.906 62.2969 549.594 62.5625 550.344 62.7188C551.094 62.875 551.836 62.9531 552.57 62.9531C554.398 62.9531 555.844 62.6172 556.906 61.9453C557.969 61.2734 558.508 60.3828 558.523 59.2734ZM574.789 52.1484C574.789 49.9141 574.961 47.8125 575.305 45.8438C575.664 43.875 576.141 42.0547 576.734 40.3828C577.328 38.6953 578.008 37.1562 578.773 35.7656C579.555 34.375 580.367 33.1406 581.211 32.0625C582.07 30.9844 582.93 30.0625 583.789 29.2969C584.648 28.5312 585.469 27.9297 586.25 27.4922L587.164 30.3516C586.195 31.0859 585.227 32.0859 584.258 33.3516C583.305 34.6172 582.445 36.1562 581.68 37.9688C580.93 39.7656 580.312 41.8438 579.828 44.2031C579.359 46.5469 579.125 49.1797 579.125 52.1016V52.4297C579.125 55.3516 579.359 57.9922 579.828 60.3516C580.312 62.7109 580.93 64.7969 581.68 66.6094C582.445 68.4219 583.305 69.9688 584.258 71.25C585.227 72.5469 586.195 73.5859 587.164 74.3672L586.25 77.0156C585.469 76.5781 584.641 75.9766 583.766 75.2109C582.906 74.4609 582.047 73.5391 581.188 72.4453C580.344 71.3672 579.531 70.1328 578.75 68.7422C577.984 67.3672 577.305 65.8438 576.711 64.1719C576.133 62.4844 575.664 60.6562 575.305 58.6875C574.961 56.7188 574.789 54.6172 574.789 52.3828V52.1484ZM615.148 52.3828C615.148 54.6172 614.969 56.7188 614.609 58.6875C614.266 60.6562 613.797 62.4844 613.203 64.1719C612.609 65.8438 611.922 67.3672 611.141 68.7422C610.375 70.1328 609.562 71.3672 608.703 72.4453C607.859 73.5391 607 74.4609 606.125 75.2109C605.266 75.9766 604.445 76.5781 603.664 77.0156L602.75 74.3672C603.719 73.6484 604.68 72.6406 605.633 71.3438C606.602 70.0625 607.461 68.5078 608.211 66.6797C608.977 64.8516 609.594 62.75 610.062 60.375C610.547 58 610.789 55.3516 610.789 52.4297V52.1016C610.789 49.1797 610.539 46.5312 610.039 44.1562C609.539 41.7656 608.891 39.6562 608.094 37.8281C607.312 35.9844 606.445 34.4219 605.492 33.1406C604.555 31.8594 603.641 30.8594 602.75 30.1406L603.664 27.4922C604.445 27.9297 605.266 28.5312 606.125 29.2969C607 30.0625 607.859 30.9844 608.703 32.0625C609.562 33.1406 610.375 34.375 611.141 35.7656C611.922 37.1562 612.609 38.6953 613.203 40.3828C613.797 42.0547 614.266 43.875 614.609 45.8438C614.969 47.8125 615.148 49.9141 615.148 52.1484V52.3828ZM675.828 74.5781C674.812 74.5469 673.891 74.375 673.062 74.0625C672.234 73.75 671.492 73.3281 670.836 72.7969C670.18 72.2656 669.609 71.6484 669.125 70.9453C668.656 70.2422 668.258 69.4844 667.93 68.6719C667.617 67.875 667.383 67.0469 667.227 66.1875C667.07 65.3438 666.992 64.5078 666.992 63.6797V59.7188C666.992 57.4688 666.453 55.8359 665.375 54.8203C664.312 53.8047 662.68 53.2891 660.477 53.2734V49.875C662.68 49.875 664.312 49.375 665.375 48.375C666.453 47.3594 666.992 45.7188 666.992 43.4531V39.4688C666.992 38.6406 667.062 37.8047 667.203 36.9609C667.344 36.1016 667.562 35.2734 667.859 34.4766C668.156 33.6641 668.531 32.9062 668.984 32.2031C669.453 31.5 670.016 30.8828 670.672 30.3516C671.328 29.8203 672.078 29.3984 672.922 29.0859C673.781 28.7734 674.75 28.6016 675.828 28.5703L676.32 31.2656C675.195 31.2969 674.297 31.5625 673.625 32.0625C672.969 32.5625 672.469 33.2031 672.125 33.9844C671.797 34.75 671.586 35.6172 671.492 36.5859C671.398 37.5547 671.352 38.5156 671.352 39.4688V43.4531C671.336 45.3281 670.898 46.9766 670.039 48.3984C669.18 49.8047 667.844 50.875 666.031 51.6094C667.844 52.3281 669.18 53.3984 670.039 54.8203C670.898 56.2266 671.336 57.8594 671.352 59.7188V63.6797C671.352 64.6484 671.43 65.6094 671.586 66.5625C671.742 67.5312 672.008 68.3984 672.383 69.1641C672.773 69.9453 673.281 70.5859 673.906 71.0859C674.547 71.5859 675.352 71.8516 676.32 71.8828L675.828 74.5781ZM272.234 130.578C271.219 130.547 270.297 130.375 269.469 130.062C268.641 129.75 267.898 129.328 267.242 128.797C266.586 128.266 266.016 127.648 265.531 126.945C265.062 126.242 264.664 125.484 264.336 124.672C264.023 123.875 263.789 123.047 263.633 122.188C263.477 121.344 263.398 120.508 263.398 119.68V115.719C263.398 113.469 262.859 111.836 261.781 110.82C260.719 109.805 259.086 109.289 256.883 109.273V105.875C259.086 105.875 260.719 105.375 261.781 104.375C262.859 103.359 263.398 101.719 263.398 99.4531V95.4688C263.398 94.6406 263.469 93.8047 263.609 92.9609C263.75 92.1016 263.969 91.2734 264.266 90.4766C264.562 89.6641 264.938 88.9062 265.391 88.2031C265.859 87.5 266.422 86.8828 267.078 86.3516C267.734 85.8203 268.484 85.3984 269.328 85.0859C270.188 84.7734 271.156 84.6016 272.234 84.5703L272.727 87.2656C271.602 87.2969 270.703 87.5625 270.031 88.0625C269.375 88.5625 268.875 89.2031 268.531 89.9844C268.203 90.75 267.992 91.6172 267.898 92.5859C267.805 93.5547 267.758 94.5156 267.758 95.4688V99.4531C267.742 101.328 267.305 102.977 266.445 104.398C265.586 105.805 264.25 106.875 262.438 107.609C264.25 108.328 265.586 109.398 266.445 110.82C267.305 112.227 267.742 113.859 267.758 115.719V119.68C267.758 120.648 267.836 121.609 267.992 122.562C268.148 123.531 268.414 124.398 268.789 125.164C269.18 125.945 269.688 126.586 270.312 127.086C270.953 127.586 271.758 127.852 272.727 127.883L272.234 130.578ZM374.422 180.93H370.531L384.781 143.875H388.648L374.422 180.93ZM412.719 142.562H407.539V181.75H412.719V185.312H403.438V139H412.719V142.562ZM443.023 178C442.852 177.672 442.711 177.266 442.602 176.781C442.508 176.281 442.438 175.766 442.391 175.234C441.953 175.672 441.461 176.086 440.914 176.477C440.383 176.867 439.789 177.211 439.133 177.508C438.492 177.805 437.805 178.039 437.07 178.211C436.336 178.383 435.555 178.469 434.727 178.469C433.383 178.469 432.164 178.273 431.07 177.883C429.992 177.492 429.07 176.969 428.305 176.312C427.555 175.641 426.969 174.852 426.547 173.945C426.141 173.023 425.938 172.031 425.938 170.969C425.938 169.578 426.211 168.359 426.758 167.312C427.32 166.266 428.109 165.398 429.125 164.711C430.141 164.008 431.359 163.484 432.781 163.141C434.219 162.797 435.82 162.625 437.586 162.625H442.32V160.633C442.32 159.867 442.18 159.18 441.898 158.57C441.617 157.961 441.219 157.445 440.703 157.023C440.188 156.586 439.555 156.25 438.805 156.016C438.07 155.781 437.242 155.664 436.32 155.664C435.461 155.664 434.688 155.773 434 155.992C433.328 156.211 432.758 156.5 432.289 156.859C431.82 157.219 431.453 157.648 431.188 158.148C430.938 158.633 430.812 159.141 430.812 159.672H426.453C426.469 158.75 426.703 157.844 427.156 156.953C427.625 156.062 428.289 155.266 429.148 154.562C430.023 153.844 431.078 153.266 432.312 152.828C433.562 152.391 434.977 152.172 436.555 152.172C437.992 152.172 439.328 152.352 440.562 152.711C441.797 153.055 442.859 153.586 443.75 154.305C444.656 155.008 445.367 155.891 445.883 156.953C446.398 158.016 446.656 159.258 446.656 160.68V172.469C446.656 173.312 446.734 174.211 446.891 175.164C447.047 176.102 447.266 176.922 447.547 177.625V178H443.023ZM435.359 174.695C436.203 174.695 436.992 174.586 437.727 174.367C438.461 174.148 439.125 173.859 439.719 173.5C440.328 173.141 440.852 172.734 441.289 172.281C441.727 171.812 442.07 171.328 442.32 170.828V165.695H438.289C435.758 165.695 433.789 166.07 432.383 166.82C430.977 167.57 430.273 168.75 430.273 170.359C430.273 170.984 430.375 171.562 430.578 172.094C430.797 172.625 431.117 173.086 431.539 173.477C431.961 173.852 432.492 174.148 433.133 174.367C433.773 174.586 434.516 174.695 435.359 174.695ZM460.391 174.461H476.539V178H454.859V174.812L470 156.227H455.07V152.641H475.695V155.711L460.391 174.461ZM489.43 139H498.734V185.312H489.43V181.75H494.633V142.562H489.43V139ZM525.406 159.695H534.945V164.008H525.406V174.578H521.07V164.008H511.555V159.695H521.07V149.734H525.406V159.695ZM547.391 180.93H543.5L557.75 143.875H561.617L547.391 180.93ZM586.953 174.508C586.109 175.758 585.055 176.734 583.789 177.438C582.523 178.125 581.062 178.469 579.406 178.469C578.078 178.469 576.875 178.266 575.797 177.859C574.719 177.438 573.797 176.789 573.031 175.914C572.266 175.039 571.672 173.93 571.25 172.586C570.844 171.227 570.641 169.602 570.641 167.711V152.641H574.977V167.758C574.977 169.133 575.086 170.273 575.305 171.18C575.523 172.086 575.852 172.812 576.289 173.359C576.727 173.891 577.258 174.266 577.883 174.484C578.523 174.703 579.258 174.812 580.086 174.812C581.852 174.812 583.273 174.453 584.352 173.734C585.445 173.016 586.258 172.047 586.789 170.828V152.641H591.148V178H587.211L586.953 174.508ZM607.836 154.656C607.836 154.188 607.906 153.75 608.047 153.344C608.203 152.938 608.422 152.586 608.703 152.289C608.984 151.977 609.336 151.734 609.758 151.562C610.18 151.391 610.672 151.305 611.234 151.305C611.797 151.305 612.289 151.391 612.711 151.562C613.148 151.734 613.508 151.977 613.789 152.289C614.086 152.586 614.305 152.938 614.445 153.344C614.602 153.75 614.68 154.188 614.68 154.656C614.68 155.109 614.602 155.539 614.445 155.945C614.305 156.336 614.086 156.68 613.789 156.977C613.508 157.273 613.148 157.508 612.711 157.68C612.289 157.836 611.797 157.914 611.234 157.914C610.672 157.914 610.18 157.836 609.758 157.68C609.336 157.508 608.984 157.273 608.703 156.977C608.422 156.68 608.203 156.336 608.047 155.945C607.906 155.539 607.836 155.109 607.836 154.656ZM613.414 176.992C613.414 177.727 613.32 178.492 613.133 179.289C612.961 180.102 612.695 180.898 612.336 181.68C611.992 182.477 611.57 183.234 611.07 183.953C610.57 184.672 609.992 185.312 609.336 185.875L606.641 184.398C607.391 183.305 607.922 182.141 608.234 180.906C608.547 179.672 608.703 178.391 608.703 177.062V172.867H613.414V176.992ZM256.883 239.883C257.836 239.852 258.633 239.586 259.273 239.086C259.914 238.586 260.422 237.945 260.797 237.164C261.188 236.398 261.461 235.531 261.617 234.562C261.789 233.609 261.875 232.648 261.875 231.68V227.719C261.875 225.859 262.305 224.227 263.164 222.82C264.023 221.398 265.359 220.328 267.172 219.609C265.359 218.875 264.023 217.805 263.164 216.398C262.305 214.977 261.875 213.328 261.875 211.453V207.469C261.875 206.516 261.82 205.555 261.711 204.586C261.617 203.617 261.398 202.75 261.055 201.984C260.727 201.203 260.234 200.562 259.578 200.062C258.922 199.562 258.031 199.297 256.906 199.266L257.375 196.57C258.453 196.602 259.414 196.773 260.258 197.086C261.117 197.398 261.875 197.82 262.531 198.352C263.188 198.883 263.742 199.5 264.195 200.203C264.664 200.906 265.047 201.664 265.344 202.477C265.641 203.273 265.859 204.102 266 204.961C266.141 205.805 266.211 206.641 266.211 207.469V211.453C266.211 213.719 266.75 215.359 267.828 216.375C268.906 217.375 270.539 217.875 272.727 217.875V221.273C270.539 221.289 268.906 221.805 267.828 222.82C266.75 223.836 266.211 225.469 266.211 227.719V231.68C266.211 232.93 266.039 234.188 265.695 235.453C265.352 236.734 264.812 237.898 264.078 238.945C263.359 239.992 262.445 240.852 261.336 241.523C260.227 242.195 258.906 242.547 257.375 242.578L256.883 239.883ZM290.727 210.656C290.727 210.188 290.797 209.75 290.938 209.344C291.094 208.938 291.312 208.586 291.594 208.289C291.875 207.977 292.227 207.734 292.648 207.562C293.07 207.391 293.562 207.305 294.125 207.305C294.688 207.305 295.18 207.391 295.602 207.562C296.039 207.734 296.398 207.977 296.68 208.289C296.977 208.586 297.195 208.938 297.336 209.344C297.492 209.75 297.57 210.188 297.57 210.656C297.57 211.109 297.492 211.539 297.336 211.945C297.195 212.336 296.977 212.68 296.68 212.977C296.398 213.273 296.039 213.508 295.602 213.68C295.18 213.836 294.688 213.914 294.125 213.914C293.562 213.914 293.07 213.836 292.648 213.68C292.227 213.508 291.875 213.273 291.594 212.977C291.312 212.68 291.094 212.336 290.938 211.945C290.797 211.539 290.727 211.109 290.727 210.656ZM296.305 232.992C296.305 233.727 296.211 234.492 296.023 235.289C295.852 236.102 295.586 236.898 295.227 237.68C294.883 238.477 294.461 239.234 293.961 239.953C293.461 240.672 292.883 241.312 292.227 241.875L289.531 240.398C290.281 239.305 290.812 238.141 291.125 236.906C291.438 235.672 291.594 234.391 291.594 233.062V228.867H296.305V232.992ZM141.57 295.883C142.523 295.852 143.32 295.586 143.961 295.086C144.602 294.586 145.109 293.945 145.484 293.164C145.875 292.398 146.148 291.531 146.305 290.562C146.477 289.609 146.562 288.648 146.562 287.68V283.719C146.562 281.859 146.992 280.227 147.852 278.82C148.711 277.398 150.047 276.328 151.859 275.609C150.047 274.875 148.711 273.805 147.852 272.398C146.992 270.977 146.562 269.328 146.562 267.453V263.469C146.562 262.516 146.508 261.555 146.398 260.586C146.305 259.617 146.086 258.75 145.742 257.984C145.414 257.203 144.922 256.562 144.266 256.062C143.609 255.562 142.719 255.297 141.594 255.266L142.062 252.57C143.141 252.602 144.102 252.773 144.945 253.086C145.805 253.398 146.562 253.82 147.219 254.352C147.875 254.883 148.43 255.5 148.883 256.203C149.352 256.906 149.734 257.664 150.031 258.477C150.328 259.273 150.547 260.102 150.688 260.961C150.828 261.805 150.898 262.641 150.898 263.469V267.453C150.898 269.719 151.438 271.359 152.516 272.375C153.594 273.375 155.227 273.875 157.414 273.875V277.273C155.227 277.289 153.594 277.805 152.516 278.82C151.438 279.836 150.898 281.469 150.898 283.719V287.68C150.898 288.93 150.727 290.188 150.383 291.453C150.039 292.734 149.5 293.898 148.766 294.945C148.047 295.992 147.133 296.852 146.023 297.523C144.914 298.195 143.594 298.547 142.062 298.578L141.57 295.883Z" fill="black"/>
<rect x="567" y="23" width="26" height="57" stroke="#601A4A" stroke-width="2"/>
<rect x="655" y="23" width="26" height="57" stroke="#EE442F" stroke-width="2"/>
<rect x="253" y="82" width="26" height="57" stroke="#63ACBE" stroke-width="2"/>
<line x1="566" y1="80" y2="80" stroke="#601A4A" stroke-width="2"/>
<line x1="129" y1="24" x2="129" y2="81" stroke="#601A4A" stroke-width="2"/>
<line x1="383" y1="24" x2="383" y2="81" stroke="#601A4A" stroke-width="2"/>
<line x1="1" y1="24" x2="1" y2="81" stroke="#601A4A" stroke-width="2"/>
<path d="M466.803 13H465.177V2.27734L461.828 3.55176V2.06641L466.671 0.203125H466.803V13Z" fill="#601A4A"/>
<path d="M250.378 13H241.993V11.8311L246.186 7.17285C246.561 6.75684 246.874 6.3877 247.126 6.06543C247.378 5.74316 247.58 5.44727 247.732 5.17773C247.885 4.90234 247.993 4.64453 248.058 4.4043C248.122 4.1582 248.154 3.90625 248.154 3.64844C248.154 3.33203 248.102 3.03613 247.996 2.76074C247.896 2.47949 247.747 2.23633 247.548 2.03125C247.354 1.82617 247.117 1.66504 246.836 1.54785C246.561 1.4248 246.247 1.36328 245.896 1.36328C245.468 1.36328 245.096 1.4248 244.779 1.54785C244.469 1.6709 244.208 1.84668 243.997 2.0752C243.792 2.29785 243.637 2.57031 243.531 2.89258C243.432 3.21484 243.382 3.5752 243.382 3.97363H241.747C241.747 3.43457 241.841 2.92773 242.028 2.45312C242.216 1.97266 242.485 1.55371 242.837 1.19629C243.194 0.838867 243.628 0.554688 244.138 0.34375C244.653 0.132812 245.239 0.0273438 245.896 0.0273438C246.499 0.0273438 247.041 0.118164 247.521 0.299805C248.008 0.475586 248.418 0.72168 248.752 1.03809C249.086 1.35449 249.341 1.72949 249.517 2.16309C249.698 2.59668 249.789 3.06836 249.789 3.57812C249.789 3.95898 249.725 4.33691 249.596 4.71191C249.467 5.08105 249.291 5.44727 249.068 5.81055C248.852 6.17383 248.597 6.53418 248.304 6.8916C248.017 7.24316 247.712 7.59473 247.39 7.94629L243.953 11.6729H250.378V13Z" fill="#601A4A"/>
<path d="M58.4277 5.81934H59.5879C59.998 5.81934 60.3584 5.76367 60.6689 5.65234C60.9854 5.54102 61.249 5.38867 61.46 5.19531C61.6768 5.00195 61.8408 4.77051 61.9521 4.50098C62.0635 4.23145 62.1191 3.93555 62.1191 3.61328C62.1191 2.86914 61.9287 2.30957 61.5479 1.93457C61.167 1.55371 60.6104 1.36328 59.8779 1.36328C59.5322 1.36328 59.2158 1.41602 58.9287 1.52148C58.6475 1.62109 58.4043 1.76758 58.1992 1.96094C58 2.1543 57.8447 2.38574 57.7334 2.65527C57.6221 2.9248 57.5664 3.22656 57.5664 3.56055H55.9316C55.9316 3.07422 56.0254 2.61719 56.2129 2.18945C56.4062 1.75586 56.6758 1.38086 57.0215 1.06445C57.3672 0.742187 57.7803 0.490234 58.2607 0.308594C58.7471 0.121094 59.2861 0.0273438 59.8779 0.0273438C60.4521 0.0273438 60.9766 0.106445 61.4512 0.264648C61.9258 0.416992 62.333 0.645508 62.6729 0.950195C63.0127 1.25488 63.2764 1.63281 63.4639 2.08398C63.6514 2.53516 63.7451 3.05664 63.7451 3.64844C63.7451 3.89453 63.707 4.14941 63.6309 4.41309C63.5547 4.67676 63.4375 4.93457 63.2793 5.18652C63.1211 5.43262 62.916 5.66699 62.6641 5.88965C62.418 6.10645 62.1221 6.28809 61.7764 6.43457C62.1924 6.56934 62.5381 6.74512 62.8135 6.96191C63.0947 7.17871 63.3174 7.42188 63.4814 7.69141C63.6514 7.96094 63.7686 8.24512 63.833 8.54395C63.9033 8.84277 63.9385 9.13867 63.9385 9.43164C63.9385 10.0293 63.8359 10.5596 63.6309 11.0225C63.4258 11.4854 63.1416 11.8779 62.7783 12.2002C62.415 12.5166 61.9844 12.7598 61.4863 12.9297C60.9941 13.0938 60.4609 13.1758 59.8867 13.1758C59.3242 13.1758 58.7939 13.0967 58.2959 12.9385C57.8037 12.7803 57.376 12.5488 57.0127 12.2441C56.6494 11.9395 56.3594 11.5674 56.1426 11.1279C55.9316 10.6885 55.8262 10.1875 55.8262 9.625H57.4521C57.4521 9.95898 57.5078 10.2637 57.6191 10.5391C57.7363 10.8145 57.9004 11.0488 58.1113 11.2422C58.3223 11.4355 58.5771 11.585 58.876 11.6904C59.1807 11.7959 59.5176 11.8486 59.8867 11.8486C60.2559 11.8486 60.5898 11.8018 60.8887 11.708C61.1875 11.6084 61.4424 11.459 61.6533 11.2598C61.8643 11.0605 62.0254 10.8145 62.1367 10.5215C62.2539 10.2227 62.3125 9.87109 62.3125 9.4668C62.3125 9.06836 62.2451 8.72559 62.1104 8.43848C61.9814 8.14551 61.7969 7.90234 61.5566 7.70898C61.3223 7.51562 61.0352 7.37207 60.6953 7.27832C60.3613 7.18457 59.9922 7.1377 59.5879 7.1377H58.4277V5.81934Z" fill="#601A4A"/>
<line x1="654" y1="80" x2="594" y2="80" stroke="#EE442F" stroke-width="2"/>
<line x1="383.995" y1="82" x2="594.995" y2="82" stroke="#EE442F" stroke-width="2"/>
<line x1="384" y1="83" x2="384" y2="24" stroke="#EE442F" stroke-width="2"/>
<line x1="595" y1="83" x2="595" y2="24" stroke="#EE442F" stroke-width="2"/>
<line x1="565" y1="83" x2="565" y2="24" stroke="#EE442F" stroke-width="2"/>
<line x1="596.5" y1="84.0041" x2="596.5" y2="24.0041" stroke="#63ACBE" stroke-width="2"/>
<line x1="563" y1="83" x2="563" y2="24" stroke="#63ACBE" stroke-width="2"/>
<path d="M607.803 13H606.177V2.27734L602.828 3.55176V2.06641L607.671 0.203125H607.803V13Z" fill="#EE442F"/>
<path d="M487.428 5.81934H488.588C488.998 5.81934 489.358 5.76367 489.669 5.65234C489.985 5.54102 490.249 5.38867 490.46 5.19531C490.677 5.00195 490.841 4.77051 490.952 4.50098C491.063 4.23145 491.119 3.93555 491.119 3.61328C491.119 2.86914 490.929 2.30957 490.548 1.93457C490.167 1.55371 489.61 1.36328 488.878 1.36328C488.532 1.36328 488.216 1.41602 487.929 1.52148C487.647 1.62109 487.404 1.76758 487.199 1.96094C487 2.1543 486.845 2.38574 486.733 2.65527C486.622 2.9248 486.566 3.22656 486.566 3.56055H484.932C484.932 3.07422 485.025 2.61719 485.213 2.18945C485.406 1.75586 485.676 1.38086 486.021 1.06445C486.367 0.742187 486.78 0.490234 487.261 0.308594C487.747 0.121094 488.286 0.0273438 488.878 0.0273438C489.452 0.0273438 489.977 0.106445 490.451 0.264648C490.926 0.416992 491.333 0.645508 491.673 0.950195C492.013 1.25488 492.276 1.63281 492.464 2.08398C492.651 2.53516 492.745 3.05664 492.745 3.64844C492.745 3.89453 492.707 4.14941 492.631 4.41309C492.555 4.67676 492.438 4.93457 492.279 5.18652C492.121 5.43262 491.916 5.66699 491.664 5.88965C491.418 6.10645 491.122 6.28809 490.776 6.43457C491.192 6.56934 491.538 6.74512 491.813 6.96191C492.095 7.17871 492.317 7.42188 492.481 7.69141C492.651 7.96094 492.769 8.24512 492.833 8.54395C492.903 8.84277 492.938 9.13867 492.938 9.43164C492.938 10.0293 492.836 10.5596 492.631 11.0225C492.426 11.4854 492.142 11.8779 491.778 12.2002C491.415 12.5166 490.984 12.7598 490.486 12.9297C489.994 13.0938 489.461 13.1758 488.887 13.1758C488.324 13.1758 487.794 13.0967 487.296 12.9385C486.804 12.7803 486.376 12.5488 486.013 12.2441C485.649 11.9395 485.359 11.5674 485.143 11.1279C484.932 10.6885 484.826 10.1875 484.826 9.625H486.452C486.452 9.95898 486.508 10.2637 486.619 10.5391C486.736 10.8145 486.9 11.0488 487.111 11.2422C487.322 11.4355 487.577 11.585 487.876 11.6904C488.181 11.7959 488.518 11.8486 488.887 11.8486C489.256 11.8486 489.59 11.8018 489.889 11.708C490.188 11.6084 490.442 11.459 490.653 11.2598C490.864 11.0605 491.025 10.8145 491.137 10.5215C491.254 10.2227 491.312 9.87109 491.312 9.4668C491.312 9.06836 491.245 8.72559 491.11 8.43848C490.981 8.14551 490.797 7.90234 490.557 7.70898C490.322 7.51562 490.035 7.37207 489.695 7.27832C489.361 7.18457 488.992 7.1377 488.588 7.1377H487.428V5.81934Z" fill="#EE442F"/>
<path d="M577.378 13H568.993V11.8311L573.186 7.17285C573.561 6.75684 573.874 6.3877 574.126 6.06543C574.378 5.74316 574.58 5.44727 574.732 5.17773C574.885 4.90234 574.993 4.64453 575.058 4.4043C575.122 4.1582 575.154 3.90625 575.154 3.64844C575.154 3.33203 575.102 3.03613 574.996 2.76074C574.896 2.47949 574.747 2.23633 574.548 2.03125C574.354 1.82617 574.117 1.66504 573.836 1.54785C573.561 1.4248 573.247 1.36328 572.896 1.36328C572.468 1.36328 572.096 1.4248 571.779 1.54785C571.469 1.6709 571.208 1.84668 570.997 2.0752C570.792 2.29785 570.637 2.57031 570.531 2.89258C570.432 3.21484 570.382 3.5752 570.382 3.97363H568.747C568.747 3.43457 568.841 2.92773 569.028 2.45312C569.216 1.97266 569.485 1.55371 569.837 1.19629C570.194 0.838867 570.628 0.554688 571.138 0.34375C571.653 0.132812 572.239 0.0273438 572.896 0.0273438C573.499 0.0273438 574.041 0.118164 574.521 0.299805C575.008 0.475586 575.418 0.72168 575.752 1.03809C576.086 1.35449 576.341 1.72949 576.517 2.16309C576.698 2.59668 576.789 3.06836 576.789 3.57812C576.789 3.95898 576.725 4.33691 576.596 4.71191C576.467 5.08105 576.291 5.44727 576.068 5.81055C575.852 6.17383 575.597 6.53418 575.304 6.8916C575.017 7.24316 574.712 7.59473 574.39 7.94629L570.953 11.6729H577.378V13Z" fill="#EE442F"/>
<line x1="253" y1="140" x2="253" y2="149" stroke="#63ACBE" stroke-width="2"/>
<line x1="252" y1="148" x2="314" y2="148" stroke="#63ACBE" stroke-width="2"/>
<line x1="315" y1="122" x2="315" y2="149" stroke="#63ACBE" stroke-width="2"/>
<line x1="313.994" y1="121.488" x2="692.006" y2="121.488" stroke="#63ACBE" stroke-width="2"/>
<line x1="691" y1="122" x2="691" y2="81" stroke="#63ACBE" stroke-width="2"/>
<line x1="691" y1="82" x2="596" y2="82" stroke="#63ACBE" stroke-width="2"/>
<line x1="561.98" y1="83.75" x2="596.98" y2="83.75" stroke="#63ACBE" stroke-width="2"/>
<path d="M668.803 13H667.177V2.27734L663.828 3.55176V2.06641L668.671 0.203125H668.803V13Z" fill="#63ACBE"/>
<path d="M627.378 13H618.993V11.8311L623.186 7.17285C623.561 6.75684 623.874 6.3877 624.126 6.06543C624.378 5.74316 624.58 5.44727 624.732 5.17773C624.885 4.90234 624.993 4.64453 625.058 4.4043C625.122 4.1582 625.154 3.90625 625.154 3.64844C625.154 3.33203 625.102 3.03613 624.996 2.76074C624.896 2.47949 624.747 2.23633 624.548 2.03125C624.354 1.82617 624.117 1.66504 623.836 1.54785C623.561 1.4248 623.247 1.36328 622.896 1.36328C622.468 1.36328 622.096 1.4248 621.779 1.54785C621.469 1.6709 621.208 1.84668 620.997 2.0752C620.792 2.29785 620.637 2.57031 620.531 2.89258C620.432 3.21484 620.382 3.5752 620.382 3.97363H618.747C618.747 3.43457 618.841 2.92773 619.028 2.45312C619.216 1.97266 619.485 1.55371 619.837 1.19629C620.194 0.838867 620.628 0.554688 621.138 0.34375C621.653 0.132812 622.239 0.0273438 622.896 0.0273438C623.499 0.0273438 624.041 0.118164 624.521 0.299805C625.008 0.475586 625.418 0.72168 625.752 1.03809C626.086 1.35449 626.341 1.72949 626.517 2.16309C626.698 2.59668 626.789 3.06836 626.789 3.57812C626.789 3.95898 626.725 4.33691 626.596 4.71191C626.467 5.08105 626.291 5.44727 626.068 5.81055C625.852 6.17383 625.597 6.53418 625.304 6.8916C625.017 7.24316 624.712 7.59473 624.39 7.94629L620.953 11.6729H627.378V13Z" fill="#63ACBE"/>
<path d="M583.428 5.81934H584.588C584.998 5.81934 585.358 5.76367 585.669 5.65234C585.985 5.54102 586.249 5.38867 586.46 5.19531C586.677 5.00195 586.841 4.77051 586.952 4.50098C587.063 4.23145 587.119 3.93555 587.119 3.61328C587.119 2.86914 586.929 2.30957 586.548 1.93457C586.167 1.55371 585.61 1.36328 584.878 1.36328C584.532 1.36328 584.216 1.41602 583.929 1.52148C583.647 1.62109 583.404 1.76758 583.199 1.96094C583 2.1543 582.845 2.38574 582.733 2.65527C582.622 2.9248 582.566 3.22656 582.566 3.56055H580.932C580.932 3.07422 581.025 2.61719 581.213 2.18945C581.406 1.75586 581.676 1.38086 582.021 1.06445C582.367 0.742187 582.78 0.490234 583.261 0.308594C583.747 0.121094 584.286 0.0273438 584.878 0.0273438C585.452 0.0273438 585.977 0.106445 586.451 0.264648C586.926 0.416992 587.333 0.645508 587.673 0.950195C588.013 1.25488 588.276 1.63281 588.464 2.08398C588.651 2.53516 588.745 3.05664 588.745 3.64844C588.745 3.89453 588.707 4.14941 588.631 4.41309C588.555 4.67676 588.438 4.93457 588.279 5.18652C588.121 5.43262 587.916 5.66699 587.664 5.88965C587.418 6.10645 587.122 6.28809 586.776 6.43457C587.192 6.56934 587.538 6.74512 587.813 6.96191C588.095 7.17871 588.317 7.42188 588.481 7.69141C588.651 7.96094 588.769 8.24512 588.833 8.54395C588.903 8.84277 588.938 9.13867 588.938 9.43164C588.938 10.0293 588.836 10.5596 588.631 11.0225C588.426 11.4854 588.142 11.8779 587.778 12.2002C587.415 12.5166 586.984 12.7598 586.486 12.9297C585.994 13.0938 585.461 13.1758 584.887 13.1758C584.324 13.1758 583.794 13.0967 583.296 12.9385C582.804 12.7803 582.376 12.5488 582.013 12.2441C581.649 11.9395 581.359 11.5674 581.143 11.1279C580.932 10.6885 580.826 10.1875 580.826 9.625H582.452C582.452 9.95898 582.508 10.2637 582.619 10.5391C582.736 10.8145 582.9 11.0488 583.111 11.2422C583.322 11.4355 583.577 11.585 583.876 11.6904C584.181 11.7959 584.518 11.8486 584.887 11.8486C585.256 11.8486 585.59 11.8018 585.889 11.708C586.188 11.6084 586.442 11.459 586.653 11.2598C586.864 11.0605 587.025 10.8145 587.137 10.5215C587.254 10.2227 587.312 9.87109 587.312 9.4668C587.312 9.06836 587.245 8.72559 587.11 8.43848C586.981 8.14551 586.797 7.90234 586.557 7.70898C586.322 7.51562 586.035 7.37207 585.695 7.27832C585.361 7.18457 584.992 7.1377 584.588 7.1377H583.428V5.81934Z" fill="#63ACBE"/>
</svg>
