<svg width="601"
    height="401"
    viewBox="0 0 601 401"
    fill="none"
    style="background:white;padding:5px"
    xmlns="http://www.w3.org/2000/svg">
    <path d="M62.5469 160V137.992H55.5625V134.641H62.5469V132.859C62.5469 131.234 62.7812 129.812 63.25 128.594C63.7344 127.359 64.4062 126.328 65.2656 125.5C66.1406 124.672 67.1875 124.047 68.4062 123.625C69.625 123.203 70.9844 122.992 72.4844 122.992C73.5156 122.992 74.5156 123.078 75.4844 123.25C76.4688 123.422 77.4766 123.641 78.5078 123.906L77.9922 127.492C77.3516 127.273 76.6016 127.086 75.7422 126.93C74.8984 126.758 73.9922 126.672 73.0234 126.672C70.9922 126.688 69.4609 127.203 68.4297 128.219C67.4141 129.234 66.9062 130.781 66.9062 132.859V134.641H76.6797V137.992H66.9062V160H62.5469ZM101.359 156.508C100.516 157.758 99.4609 158.734 98.1953 159.438C96.9297 160.125 95.4688 160.469 93.8125 160.469C92.4844 160.469 91.2812 160.266 90.2031 159.859C89.125 159.438 88.2031 158.789 87.4375 157.914C86.6719 157.039 86.0781 155.93 85.6562 154.586C85.25 153.227 85.0469 151.602 85.0469 149.711V134.641H89.3828V149.758C89.3828 151.133 89.4922 152.273 89.7109 153.18C89.9297 154.086 90.2578 154.812 90.6953 155.359C91.1328 155.891 91.6641 156.266 92.2891 156.484C92.9297 156.703 93.6641 156.812 94.4922 156.812C96.2578 156.812 97.6797 156.453 98.7578 155.734C99.8516 155.016 100.664 154.047 101.195 152.828V134.641H105.555V160H101.617L101.359 156.508ZM117.625 134.641L117.93 138.391C118.852 137.078 119.984 136.055 121.328 135.32C122.672 134.57 124.172 134.188 125.828 134.172C127.156 134.172 128.359 134.359 129.438 134.734C130.531 135.109 131.461 135.695 132.227 136.492C132.992 137.289 133.578 138.305 133.984 139.539C134.406 140.758 134.617 142.211 134.617 143.898V160H130.281V143.992C130.281 142.867 130.156 141.914 129.906 141.133C129.656 140.352 129.281 139.719 128.781 139.234C128.297 138.75 127.695 138.398 126.977 138.18C126.273 137.961 125.461 137.852 124.539 137.852C123.086 137.852 121.805 138.219 120.695 138.953C119.602 139.672 118.727 140.625 118.07 141.812V160H113.734V134.641H117.625ZM153.367 156.953C154.148 156.953 154.906 156.828 155.641 156.578C156.391 156.328 157.055 155.984 157.633 155.547C158.211 155.094 158.672 154.57 159.016 153.977C159.375 153.367 159.562 152.711 159.578 152.008H163.68C163.664 153.133 163.367 154.211 162.789 155.242C162.227 156.258 161.469 157.156 160.516 157.938C159.562 158.703 158.469 159.32 157.234 159.789C156 160.242 154.711 160.469 153.367 160.469C151.445 160.469 149.766 160.125 148.328 159.438C146.891 158.75 145.688 157.828 144.719 156.672C143.766 155.5 143.047 154.156 142.562 152.641C142.078 151.109 141.836 149.5 141.836 147.812V146.828C141.836 145.156 142.078 143.555 142.562 142.023C143.047 140.492 143.766 139.148 144.719 137.992C145.688 136.82 146.891 135.891 148.328 135.203C149.766 134.516 151.445 134.172 153.367 134.172C154.867 134.172 156.242 134.414 157.492 134.898C158.758 135.367 159.844 136.016 160.75 136.844C161.672 137.656 162.391 138.625 162.906 139.75C163.422 140.875 163.68 142.078 163.68 143.359H159.578C159.562 142.594 159.391 141.875 159.062 141.203C158.75 140.516 158.32 139.914 157.773 139.398C157.227 138.883 156.57 138.477 155.805 138.18C155.055 137.883 154.242 137.734 153.367 137.734C152.023 137.734 150.891 138.008 149.969 138.555C149.062 139.086 148.328 139.789 147.766 140.664C147.203 141.523 146.797 142.492 146.547 143.57C146.312 144.648 146.195 145.734 146.195 146.828V147.812C146.195 148.922 146.312 150.023 146.547 151.117C146.797 152.195 147.195 153.172 147.742 154.047C148.305 154.906 149.039 155.609 149.945 156.156C150.867 156.688 152.008 156.953 153.367 156.953ZM181.656 128.5V134.641H191.312V137.992H181.656V151.773C181.656 152.758 181.781 153.57 182.031 154.211C182.281 154.852 182.625 155.367 183.062 155.758C183.5 156.133 184 156.398 184.562 156.555C185.141 156.711 185.75 156.789 186.391 156.789C186.859 156.789 187.344 156.766 187.844 156.719C188.344 156.656 188.828 156.586 189.297 156.508C189.781 156.43 190.227 156.352 190.633 156.273C191.055 156.18 191.398 156.102 191.664 156.039L192.273 159.109C191.914 159.328 191.477 159.523 190.961 159.695C190.445 159.852 189.883 159.984 189.273 160.094C188.664 160.219 188.016 160.312 187.328 160.375C186.656 160.438 185.984 160.469 185.312 160.469C184.188 160.469 183.133 160.312 182.148 160C181.18 159.672 180.336 159.164 179.617 158.477C178.898 157.773 178.328 156.875 177.906 155.781C177.5 154.672 177.297 153.336 177.297 151.773V137.992H170.641V134.641H177.297V128.5H181.656ZM200.898 134.641H213.859V156.25H222.133V160H200.898V156.25H209.523V138.414H200.898V134.641ZM208.961 127.984C208.961 127.266 209.172 126.664 209.594 126.18C210.031 125.68 210.688 125.43 211.562 125.43C212.422 125.43 213.07 125.68 213.508 126.18C213.945 126.664 214.164 127.266 214.164 127.984C214.164 128.688 213.945 129.273 213.508 129.742C213.07 130.211 212.422 130.445 211.562 130.445C210.688 130.445 210.031 130.211 209.594 129.742C209.172 129.273 208.961 128.688 208.961 127.984ZM227.828 147.086C227.828 145.258 228.094 143.562 228.625 142C229.156 140.422 229.914 139.055 230.898 137.898C231.898 136.742 233.109 135.836 234.531 135.18C235.953 134.508 237.555 134.172 239.336 134.172C241.133 134.172 242.742 134.508 244.164 135.18C245.602 135.836 246.812 136.742 247.797 137.898C248.797 139.055 249.562 140.422 250.094 142C250.625 143.562 250.891 145.258 250.891 147.086V147.602C250.891 149.43 250.625 151.125 250.094 152.688C249.562 154.25 248.797 155.609 247.797 156.766C246.812 157.922 245.609 158.828 244.188 159.484C242.766 160.141 241.164 160.469 239.383 160.469C237.586 160.469 235.969 160.141 234.531 159.484C233.109 158.828 231.898 157.922 230.898 156.766C229.914 155.609 229.156 154.25 228.625 152.688C228.094 151.125 227.828 149.43 227.828 147.602V147.086ZM232.164 147.602C232.164 148.852 232.312 150.047 232.609 151.188C232.906 152.312 233.352 153.305 233.945 154.164C234.555 155.023 235.312 155.703 236.219 156.203C237.125 156.703 238.18 156.953 239.383 156.953C240.57 156.953 241.609 156.703 242.5 156.203C243.406 155.703 244.156 155.023 244.75 154.164C245.359 153.305 245.812 152.312 246.109 151.188C246.406 150.047 246.555 148.852 246.555 147.602V147.086C246.555 145.852 246.398 144.672 246.086 143.547C245.789 142.406 245.336 141.406 244.727 140.547C244.133 139.688 243.383 139.008 242.477 138.508C241.586 137.992 240.539 137.734 239.336 137.734C238.133 137.734 237.086 137.992 236.195 138.508C235.305 139.008 234.555 139.688 233.945 140.547C233.352 141.406 232.906 142.406 232.609 143.547C232.312 144.672 232.164 145.852 232.164 147.086V147.602ZM261.766 134.641L262.07 138.391C262.992 137.078 264.125 136.055 265.469 135.32C266.812 134.57 268.312 134.188 269.969 134.172C271.297 134.172 272.5 134.359 273.578 134.734C274.672 135.109 275.602 135.695 276.367 136.492C277.133 137.289 277.719 138.305 278.125 139.539C278.547 140.758 278.758 142.211 278.758 143.898V160H274.422V143.992C274.422 142.867 274.297 141.914 274.047 141.133C273.797 140.352 273.422 139.719 272.922 139.234C272.438 138.75 271.836 138.398 271.117 138.18C270.414 137.961 269.602 137.852 268.68 137.852C267.227 137.852 265.945 138.219 264.836 138.953C263.742 139.672 262.867 140.625 262.211 141.812V160H257.875V134.641H261.766Z"
        fill="#551A8B"
    />
    <path d="M325.797 128.5V134.641H335.453V137.992H325.797V151.773C325.797 152.758 325.922 153.57 326.172 154.211C326.422 154.852 326.766 155.367 327.203 155.758C327.641 156.133 328.141 156.398 328.703 156.555C329.281 156.711 329.891 156.789 330.531 156.789C331 156.789 331.484 156.766 331.984 156.719C332.484 156.656 332.969 156.586 333.438 156.508C333.922 156.43 334.367 156.352 334.773 156.273C335.195 156.18 335.539 156.102 335.805 156.039L336.414 159.109C336.055 159.328 335.617 159.523 335.102 159.695C334.586 159.852 334.023 159.984 333.414 160.094C332.805 160.219 332.156 160.312 331.469 160.375C330.797 160.438 330.125 160.469 329.453 160.469C328.328 160.469 327.273 160.312 326.289 160C325.32 159.672 324.477 159.164 323.758 158.477C323.039 157.773 322.469 156.875 322.047 155.781C321.641 154.672 321.438 153.336 321.438 151.773V137.992H314.781V134.641H321.438V128.5H325.797ZM348.695 138.414C349.602 137.086 350.719 136.055 352.047 135.32C353.375 134.57 354.867 134.188 356.523 134.172C357.852 134.172 359.055 134.367 360.133 134.758C361.227 135.133 362.156 135.727 362.922 136.539C363.688 137.352 364.273 138.383 364.68 139.633C365.102 140.867 365.312 142.336 365.312 144.039V160H360.977V143.992C360.977 141.914 360.477 140.367 359.477 139.352C358.492 138.336 357.078 137.836 355.234 137.852C353.844 137.852 352.578 138.195 351.438 138.883C350.312 139.555 349.398 140.453 348.695 141.578V160H344.359V124H348.695V138.414ZM373.867 134.641H386.828V156.25H395.102V160H373.867V156.25H382.492V138.414H373.867V134.641ZM381.93 127.984C381.93 127.266 382.141 126.664 382.562 126.18C383 125.68 383.656 125.43 384.531 125.43C385.391 125.43 386.039 125.68 386.477 126.18C386.914 126.664 387.133 127.266 387.133 127.984C387.133 128.688 386.914 129.273 386.477 129.742C386.039 130.211 385.391 130.445 384.531 130.445C383.656 130.445 383 130.211 382.562 129.742C382.141 129.273 381.93 128.688 381.93 127.984ZM405.906 134.641L406.211 138.391C407.133 137.078 408.266 136.055 409.609 135.32C410.953 134.57 412.453 134.188 414.109 134.172C415.438 134.172 416.641 134.359 417.719 134.734C418.812 135.109 419.742 135.695 420.508 136.492C421.273 137.289 421.859 138.305 422.266 139.539C422.688 140.758 422.898 142.211 422.898 143.898V160H418.562V143.992C418.562 142.867 418.438 141.914 418.188 141.133C417.938 140.352 417.562 139.719 417.062 139.234C416.578 138.75 415.977 138.398 415.258 138.18C414.555 137.961 413.742 137.852 412.82 137.852C411.367 137.852 410.086 138.219 408.977 138.953C407.883 139.672 407.008 140.625 406.352 141.812V160H402.016V134.641H405.906ZM430.047 147.109C430.047 145.219 430.273 143.484 430.727 141.906C431.195 140.312 431.867 138.945 432.742 137.805C433.617 136.664 434.68 135.773 435.93 135.133C437.18 134.492 438.594 134.172 440.172 134.172C441.734 134.172 443.102 134.453 444.273 135.016C445.461 135.562 446.469 136.359 447.297 137.406L447.508 134.641H451.445V159.461C451.445 161.133 451.18 162.617 450.648 163.914C450.133 165.211 449.398 166.312 448.445 167.219C447.508 168.125 446.383 168.812 445.07 169.281C443.758 169.75 442.305 169.984 440.711 169.984C440.055 169.984 439.305 169.906 438.461 169.75C437.617 169.609 436.758 169.367 435.883 169.023C435.023 168.695 434.188 168.25 433.375 167.688C432.578 167.125 431.891 166.43 431.312 165.602L433.562 163C434.094 163.641 434.641 164.18 435.203 164.617C435.766 165.07 436.336 165.43 436.914 165.695C437.492 165.961 438.07 166.148 438.648 166.258C439.227 166.383 439.805 166.445 440.383 166.445C441.414 166.445 442.344 166.297 443.172 166C444 165.703 444.703 165.266 445.281 164.688C445.875 164.125 446.328 163.422 446.641 162.578C446.953 161.734 447.109 160.766 447.109 159.672V157.492C446.266 158.461 445.266 159.203 444.109 159.719C442.969 160.219 441.641 160.469 440.125 160.469C438.578 160.469 437.18 160.141 435.93 159.484C434.68 158.828 433.617 157.922 432.742 156.766C431.883 155.609 431.219 154.25 430.75 152.688C430.281 151.109 430.047 149.414 430.047 147.602V147.109ZM434.383 147.602C434.383 148.836 434.508 150.008 434.758 151.117C435.023 152.227 435.43 153.203 435.977 154.047C436.539 154.891 437.25 155.562 438.109 156.062C438.969 156.547 440 156.789 441.203 156.789C441.953 156.789 442.625 156.703 443.219 156.531C443.828 156.344 444.367 156.086 444.836 155.758C445.32 155.43 445.75 155.039 446.125 154.586C446.5 154.133 446.828 153.633 447.109 153.086V141.461C446.828 140.93 446.5 140.445 446.125 140.008C445.75 139.57 445.32 139.195 444.836 138.883C444.352 138.555 443.812 138.305 443.219 138.133C442.625 137.945 441.969 137.852 441.25 137.852C440.031 137.852 438.984 138.102 438.109 138.602C437.25 139.102 436.539 139.781 435.977 140.641C435.43 141.484 435.023 142.469 434.758 143.594C434.508 144.703 434.383 145.875 434.383 147.109V147.602ZM476.523 153.273C476.523 152.758 476.422 152.297 476.219 151.891C476.016 151.469 475.672 151.086 475.188 150.742C474.703 150.398 474.062 150.086 473.266 149.805C472.469 149.508 471.477 149.242 470.289 149.008C468.836 148.711 467.508 148.352 466.305 147.93C465.117 147.508 464.094 147.008 463.234 146.43C462.391 145.836 461.734 145.148 461.266 144.367C460.797 143.57 460.562 142.648 460.562 141.602C460.562 140.57 460.805 139.609 461.289 138.719C461.773 137.812 462.453 137.023 463.328 136.352C464.203 135.68 465.242 135.148 466.445 134.758C467.664 134.367 469 134.172 470.453 134.172C472.016 134.172 473.422 134.375 474.672 134.781C475.922 135.188 476.984 135.75 477.859 136.469C478.734 137.188 479.406 138.031 479.875 139C480.359 139.953 480.602 140.984 480.602 142.094H476.266C476.266 141.547 476.125 141.016 475.844 140.5C475.562 139.969 475.172 139.5 474.672 139.094C474.172 138.688 473.562 138.359 472.844 138.109C472.141 137.859 471.344 137.734 470.453 137.734C469.531 137.734 468.719 137.836 468.016 138.039C467.328 138.242 466.75 138.516 466.281 138.859C465.828 139.203 465.484 139.602 465.25 140.055C465.016 140.508 464.898 140.977 464.898 141.461C464.898 141.961 464.992 142.406 465.18 142.797C465.367 143.188 465.688 143.539 466.141 143.852C466.609 144.164 467.227 144.445 467.992 144.695C468.773 144.945 469.758 145.188 470.945 145.422C472.508 145.75 473.906 146.133 475.141 146.57C476.375 146.992 477.414 147.508 478.258 148.117C479.102 148.711 479.742 149.406 480.18 150.203C480.633 151 480.859 151.922 480.859 152.969C480.859 154.094 480.602 155.117 480.086 156.039C479.586 156.961 478.883 157.75 477.977 158.406C477.07 159.062 475.984 159.57 474.719 159.93C473.453 160.289 472.07 160.469 470.57 160.469C468.852 160.469 467.32 160.242 465.977 159.789C464.633 159.32 463.492 158.711 462.555 157.961C461.633 157.195 460.922 156.312 460.422 155.312C459.938 154.312 459.695 153.273 459.695 152.195H464.031C464.094 153.086 464.328 153.836 464.734 154.445C465.156 155.055 465.672 155.547 466.281 155.922C466.906 156.297 467.594 156.562 468.344 156.719C469.094 156.875 469.836 156.953 470.57 156.953C472.398 156.953 473.844 156.617 474.906 155.945C475.969 155.273 476.508 154.383 476.523 153.273ZM492.789 146.148C492.789 143.914 492.961 141.812 493.305 139.844C493.664 137.875 494.141 136.055 494.734 134.383C495.328 132.695 496.008 131.156 496.773 129.766C497.555 128.375 498.367 127.141 499.211 126.062C500.07 124.984 500.93 124.062 501.789 123.297C502.648 122.531 503.469 121.93 504.25 121.492L505.164 124.352C504.195 125.086 503.227 126.086 502.258 127.352C501.305 128.617 500.445 130.156 499.68 131.969C498.93 133.766 498.312 135.844 497.828 138.203C497.359 140.547 497.125 143.18 497.125 146.102V146.43C497.125 149.352 497.359 151.992 497.828 154.352C498.312 156.711 498.93 158.797 499.68 160.609C500.445 162.422 501.305 163.969 502.258 165.25C503.227 166.547 504.195 167.586 505.164 168.367L504.25 171.016C503.469 170.578 502.641 169.977 501.766 169.211C500.906 168.461 500.047 167.539 499.188 166.445C498.344 165.367 497.531 164.133 496.75 162.742C495.984 161.367 495.305 159.844 494.711 158.172C494.133 156.484 493.664 154.656 493.305 152.688C492.961 150.719 492.789 148.617 492.789 146.383V146.148ZM533.148 146.383C533.148 148.617 532.969 150.719 532.609 152.688C532.266 154.656 531.797 156.484 531.203 158.172C530.609 159.844 529.922 161.367 529.141 162.742C528.375 164.133 527.562 165.367 526.703 166.445C525.859 167.539 525 168.461 524.125 169.211C523.266 169.977 522.445 170.578 521.664 171.016L520.75 168.367C521.719 167.648 522.68 166.641 523.633 165.344C524.602 164.062 525.461 162.508 526.211 160.68C526.977 158.852 527.594 156.75 528.062 154.375C528.547 152 528.789 149.352 528.789 146.43V146.102C528.789 143.18 528.539 140.531 528.039 138.156C527.539 135.766 526.891 133.656 526.094 131.828C525.312 129.984 524.445 128.422 523.492 127.141C522.555 125.859 521.641 124.859 520.75 124.141L521.664 121.492C522.445 121.93 523.266 122.531 524.125 123.297C525 124.062 525.859 124.984 526.703 126.062C527.562 127.141 528.375 128.375 529.141 129.766C529.922 131.156 530.609 132.695 531.203 134.383C531.797 136.055 532.266 137.875 532.609 139.844C532.969 141.812 533.148 143.914 533.148 146.148V146.383ZM593.828 168.578C592.812 168.547 591.891 168.375 591.062 168.062C590.234 167.75 589.492 167.328 588.836 166.797C588.18 166.266 587.609 165.648 587.125 164.945C586.656 164.242 586.258 163.484 585.93 162.672C585.617 161.875 585.383 161.047 585.227 160.188C585.07 159.344 584.992 158.508 584.992 157.68V153.719C584.992 151.469 584.453 149.836 583.375 148.82C582.312 147.805 580.68 147.289 578.477 147.273V143.875C580.68 143.875 582.312 143.375 583.375 142.375C584.453 141.359 584.992 139.719 584.992 137.453V133.469C584.992 132.641 585.062 131.805 585.203 130.961C585.344 130.102 585.562 129.273 585.859 128.477C586.156 127.664 586.531 126.906 586.984 126.203C587.453 125.5 588.016 124.883 588.672 124.352C589.328 123.82 590.078 123.398 590.922 123.086C591.781 122.773 592.75 122.602 593.828 122.57L594.32 125.266C593.195 125.297 592.297 125.562 591.625 126.062C590.969 126.562 590.469 127.203 590.125 127.984C589.797 128.75 589.586 129.617 589.492 130.586C589.398 131.555 589.352 132.516 589.352 133.469V137.453C589.336 139.328 588.898 140.977 588.039 142.398C587.18 143.805 585.844 144.875 584.031 145.609C585.844 146.328 587.18 147.398 588.039 148.82C588.898 150.227 589.336 151.859 589.352 153.719V157.68C589.352 158.648 589.43 159.609 589.586 160.562C589.742 161.531 590.008 162.398 590.383 163.164C590.773 163.945 591.281 164.586 591.906 165.086C592.547 165.586 593.352 165.852 594.32 165.883L593.828 168.578ZM190.234 224.578C189.219 224.547 188.297 224.375 187.469 224.062C186.641 223.75 185.898 223.328 185.242 222.797C184.586 222.266 184.016 221.648 183.531 220.945C183.062 220.242 182.664 219.484 182.336 218.672C182.023 217.875 181.789 217.047 181.633 216.188C181.477 215.344 181.398 214.508 181.398 213.68V209.719C181.398 207.469 180.859 205.836 179.781 204.82C178.719 203.805 177.086 203.289 174.883 203.273V199.875C177.086 199.875 178.719 199.375 179.781 198.375C180.859 197.359 181.398 195.719 181.398 193.453V189.469C181.398 188.641 181.469 187.805 181.609 186.961C181.75 186.102 181.969 185.273 182.266 184.477C182.562 183.664 182.938 182.906 183.391 182.203C183.859 181.5 184.422 180.883 185.078 180.352C185.734 179.82 186.484 179.398 187.328 179.086C188.188 178.773 189.156 178.602 190.234 178.57L190.727 181.266C189.602 181.297 188.703 181.562 188.031 182.062C187.375 182.562 186.875 183.203 186.531 183.984C186.203 184.75 185.992 185.617 185.898 186.586C185.805 187.555 185.758 188.516 185.758 189.469V193.453C185.742 195.328 185.305 196.977 184.445 198.398C183.586 199.805 182.25 200.875 180.438 201.609C182.25 202.328 183.586 203.398 184.445 204.82C185.305 206.227 185.742 207.859 185.758 209.719V213.68C185.758 214.648 185.836 215.609 185.992 216.562C186.148 217.531 186.414 218.398 186.789 219.164C187.18 219.945 187.688 220.586 188.312 221.086C188.953 221.586 189.758 221.852 190.727 221.883L190.234 224.578ZM292.422 274.93H288.531L302.781 237.875H306.648L292.422 274.93ZM330.719 236.562H325.539V275.75H330.719V279.312H321.438V233H330.719V236.562ZM361.023 272C360.852 271.672 360.711 271.266 360.602 270.781C360.508 270.281 360.438 269.766 360.391 269.234C359.953 269.672 359.461 270.086 358.914 270.477C358.383 270.867 357.789 271.211 357.133 271.508C356.492 271.805 355.805 272.039 355.07 272.211C354.336 272.383 353.555 272.469 352.727 272.469C351.383 272.469 350.164 272.273 349.07 271.883C347.992 271.492 347.07 270.969 346.305 270.312C345.555 269.641 344.969 268.852 344.547 267.945C344.141 267.023 343.938 266.031 343.938 264.969C343.938 263.578 344.211 262.359 344.758 261.312C345.32 260.266 346.109 259.398 347.125 258.711C348.141 258.008 349.359 257.484 350.781 257.141C352.219 256.797 353.82 256.625 355.586 256.625H360.32V254.633C360.32 253.867 360.18 253.18 359.898 252.57C359.617 251.961 359.219 251.445 358.703 251.023C358.188 250.586 357.555 250.25 356.805 250.016C356.07 249.781 355.242 249.664 354.32 249.664C353.461 249.664 352.688 249.773 352 249.992C351.328 250.211 350.758 250.5 350.289 250.859C349.82 251.219 349.453 251.648 349.188 252.148C348.938 252.633 348.812 253.141 348.812 253.672H344.453C344.469 252.75 344.703 251.844 345.156 250.953C345.625 250.062 346.289 249.266 347.148 248.562C348.023 247.844 349.078 247.266 350.312 246.828C351.562 246.391 352.977 246.172 354.555 246.172C355.992 246.172 357.328 246.352 358.562 246.711C359.797 247.055 360.859 247.586 361.75 248.305C362.656 249.008 363.367 249.891 363.883 250.953C364.398 252.016 364.656 253.258 364.656 254.68V266.469C364.656 267.312 364.734 268.211 364.891 269.164C365.047 270.102 365.266 270.922 365.547 271.625V272H361.023ZM353.359 268.695C354.203 268.695 354.992 268.586 355.727 268.367C356.461 268.148 357.125 267.859 357.719 267.5C358.328 267.141 358.852 266.734 359.289 266.281C359.727 265.812 360.07 265.328 360.32 264.828V259.695H356.289C353.758 259.695 351.789 260.07 350.383 260.82C348.977 261.57 348.273 262.75 348.273 264.359C348.273 264.984 348.375 265.562 348.578 266.094C348.797 266.625 349.117 267.086 349.539 267.477C349.961 267.852 350.492 268.148 351.133 268.367C351.773 268.586 352.516 268.695 353.359 268.695ZM378.391 268.461H394.539V272H372.859V268.812L388 250.227H373.07V246.641H393.695V249.711L378.391 268.461ZM407.43 233H416.734V279.312H407.43V275.75H412.633V236.562H407.43V233ZM443.406 253.695H452.945V258.008H443.406V268.578H439.07V258.008H429.555V253.695H439.07V243.734H443.406V253.695ZM465.391 274.93H461.5L475.75 237.875H479.617L465.391 274.93ZM504.953 268.508C504.109 269.758 503.055 270.734 501.789 271.438C500.523 272.125 499.062 272.469 497.406 272.469C496.078 272.469 494.875 272.266 493.797 271.859C492.719 271.438 491.797 270.789 491.031 269.914C490.266 269.039 489.672 267.93 489.25 266.586C488.844 265.227 488.641 263.602 488.641 261.711V246.641H492.977V261.758C492.977 263.133 493.086 264.273 493.305 265.18C493.523 266.086 493.852 266.812 494.289 267.359C494.727 267.891 495.258 268.266 495.883 268.484C496.523 268.703 497.258 268.812 498.086 268.812C499.852 268.812 501.273 268.453 502.352 267.734C503.445 267.016 504.258 266.047 504.789 264.828V246.641H509.148V272H505.211L504.953 268.508ZM525.836 248.656C525.836 248.188 525.906 247.75 526.047 247.344C526.203 246.938 526.422 246.586 526.703 246.289C526.984 245.977 527.336 245.734 527.758 245.562C528.18 245.391 528.672 245.305 529.234 245.305C529.797 245.305 530.289 245.391 530.711 245.562C531.148 245.734 531.508 245.977 531.789 246.289C532.086 246.586 532.305 246.938 532.445 247.344C532.602 247.75 532.68 248.188 532.68 248.656C532.68 249.109 532.602 249.539 532.445 249.945C532.305 250.336 532.086 250.68 531.789 250.977C531.508 251.273 531.148 251.508 530.711 251.68C530.289 251.836 529.797 251.914 529.234 251.914C528.672 251.914 528.18 251.836 527.758 251.68C527.336 251.508 526.984 251.273 526.703 250.977C526.422 250.68 526.203 250.336 526.047 249.945C525.906 249.539 525.836 249.109 525.836 248.656ZM531.414 270.992C531.414 271.727 531.32 272.492 531.133 273.289C530.961 274.102 530.695 274.898 530.336 275.68C529.992 276.477 529.57 277.234 529.07 277.953C528.57 278.672 527.992 279.312 527.336 279.875L524.641 278.398C525.391 277.305 525.922 276.141 526.234 274.906C526.547 273.672 526.703 272.391 526.703 271.062V266.867H531.414V270.992ZM174.883 333.883C175.836 333.852 176.633 333.586 177.273 333.086C177.914 332.586 178.422 331.945 178.797 331.164C179.188 330.398 179.461 329.531 179.617 328.562C179.789 327.609 179.875 326.648 179.875 325.68V321.719C179.875 319.859 180.305 318.227 181.164 316.82C182.023 315.398 183.359 314.328 185.172 313.609C183.359 312.875 182.023 311.805 181.164 310.398C180.305 308.977 179.875 307.328 179.875 305.453V301.469C179.875 300.516 179.82 299.555 179.711 298.586C179.617 297.617 179.398 296.75 179.055 295.984C178.727 295.203 178.234 294.562 177.578 294.062C176.922 293.562 176.031 293.297 174.906 293.266L175.375 290.57C176.453 290.602 177.414 290.773 178.258 291.086C179.117 291.398 179.875 291.82 180.531 292.352C181.188 292.883 181.742 293.5 182.195 294.203C182.664 294.906 183.047 295.664 183.344 296.477C183.641 297.273 183.859 298.102 184 298.961C184.141 299.805 184.211 300.641 184.211 301.469V305.453C184.211 307.719 184.75 309.359 185.828 310.375C186.906 311.375 188.539 311.875 190.727 311.875V315.273C188.539 315.289 186.906 315.805 185.828 316.82C184.75 317.836 184.211 319.469 184.211 321.719V325.68C184.211 326.93 184.039 328.188 183.695 329.453C183.352 330.734 182.812 331.898 182.078 332.945C181.359 333.992 180.445 334.852 179.336 335.523C178.227 336.195 176.906 336.547 175.375 336.578L174.883 333.883ZM208.727 304.656C208.727 304.188 208.797 303.75 208.938 303.344C209.094 302.938 209.312 302.586 209.594 302.289C209.875 301.977 210.227 301.734 210.648 301.562C211.07 301.391 211.562 301.305 212.125 301.305C212.688 301.305 213.18 301.391 213.602 301.562C214.039 301.734 214.398 301.977 214.68 302.289C214.977 302.586 215.195 302.938 215.336 303.344C215.492 303.75 215.57 304.188 215.57 304.656C215.57 305.109 215.492 305.539 215.336 305.945C215.195 306.336 214.977 306.68 214.68 306.977C214.398 307.273 214.039 307.508 213.602 307.68C213.18 307.836 212.688 307.914 212.125 307.914C211.562 307.914 211.07 307.836 210.648 307.68C210.227 307.508 209.875 307.273 209.594 306.977C209.312 306.68 209.094 306.336 208.938 305.945C208.797 305.539 208.727 305.109 208.727 304.656ZM214.305 326.992C214.305 327.727 214.211 328.492 214.023 329.289C213.852 330.102 213.586 330.898 213.227 331.68C212.883 332.477 212.461 333.234 211.961 333.953C211.461 334.672 210.883 335.312 210.227 335.875L207.531 334.398C208.281 333.305 208.812 332.141 209.125 330.906C209.438 329.672 209.594 328.391 209.594 327.062V322.867H214.305V326.992ZM59.5703 389.883C60.5234 389.852 61.3203 389.586 61.9609 389.086C62.6016 388.586 63.1094 387.945 63.4844 387.164C63.875 386.398 64.1484 385.531 64.3047 384.562C64.4766 383.609 64.5625 382.648 64.5625 381.68V377.719C64.5625 375.859 64.9922 374.227 65.8516 372.82C66.7109 371.398 68.0469 370.328 69.8594 369.609C68.0469 368.875 66.7109 367.805 65.8516 366.398C64.9922 364.977 64.5625 363.328 64.5625 361.453V357.469C64.5625 356.516 64.5078 355.555 64.3984 354.586C64.3047 353.617 64.0859 352.75 63.7422 351.984C63.4141 351.203 62.9219 350.562 62.2656 350.062C61.6094 349.562 60.7188 349.297 59.5938 349.266L60.0625 346.57C61.1406 346.602 62.1016 346.773 62.9453 347.086C63.8047 347.398 64.5625 347.82 65.2188 348.352C65.875 348.883 66.4297 349.5 66.8828 350.203C67.3516 350.906 67.7344 351.664 68.0312 352.477C68.3281 353.273 68.5469 354.102 68.6875 354.961C68.8281 355.805 68.8984 356.641 68.8984 357.469V361.453C68.8984 363.719 69.4375 365.359 70.5156 366.375C71.5938 367.375 73.2266 367.875 75.4141 367.875V371.273C73.2266 371.289 71.5938 371.805 70.5156 372.82C69.4375 373.836 68.8984 375.469 68.8984 377.719V381.68C68.8984 382.93 68.7266 384.188 68.3828 385.453C68.0391 386.734 67.5 387.898 66.7656 388.945C66.0469 389.992 65.1328 390.852 64.0234 391.523C62.9141 392.195 61.5938 392.547 60.0625 392.578L59.5703 389.883Z"
        fill="black"
    />
    <rect x="53" y="344" 
        width="26" 
        height="56" 
        stroke="#888800" 
        stroke-width="2"
        id="func-body-close-brace"
    />
    <rect x="197" y="286" 
        width="26" 
        height="56" 
        stroke="#888800" 
        stroke-width="2"
        id="block-end-semi"
    />
    <rect x="169" y="286" 
        width="26" 
        height="56" 
        stroke="#888800" 
        stroke-width="2"
        id="block-end-brace"
    />
    <rect x="514" y="228" 
        width="26" 
        height="56" 
        stroke="#880000"
        stroke-width="2"
        id="regex-semi"
    />
    <rect x="285" y="228" 
        width="227" 
        height="56" 
        stroke="#8800FF" 
        stroke-width="2"
        id="regex"
    />
    <rect x="169" y="175" 
        width="26" 
        height="56" 
        stroke="#888800" 
        stroke-width="2"
        id="block-start-brace"
    />
    <rect x="574" y="117" 
        width="26" 
        height="56" 
        stroke="#888800"
        stroke-width="2"
        id="func-body-start-brace"
    />
    <rect x="514" y="117" 
        width="26" 
        height="56" 
        stroke="#888800" 
        stroke-width="2"
        id="func-args-close-paren"
    />
    <rect x="486" y="117" 
        width="26" 
        height="56" 
        stroke="#888800" 
        stroke-width="2"
        id="func-args-open-paren"
    />
    <rect x="306" y="117" 
        width="178" 
        height="56" 
        stroke="#3355FF" 
        stroke-width="2"
        id="func-ident"
    />
    <path d="M53 117H283V173H53V117Z" 
        stroke="#00DD55"
        stroke-width="2"
        id="func-keyword"
    />
    <rect x="71.5365" y="24"
        width="43.5815"
        height="31"
        fill="#00DD55"
        id="key-color-keyword"
    />
    <path d="M138.74 39.7188L137.475 41.1562V45H135.998V33.625H137.475V39.1797L138.576 37.8047L141.912 33.625H143.67L139.694 38.6016L143.936 45H142.178L138.74 39.7188ZM149.358 45.1562C148.764 45.1562 148.217 45.0547 147.717 44.8516C147.222 44.6484 146.798 44.3646 146.444 44C146.089 43.6354 145.813 43.2031 145.615 42.7031C145.418 42.2031 145.319 41.6589 145.319 41.0703V40.7422C145.319 40.0599 145.428 39.4505 145.647 38.9141C145.865 38.3724 146.154 37.9167 146.514 37.5469C146.878 37.1719 147.29 36.8854 147.748 36.6875C148.212 36.4896 148.686 36.3906 149.17 36.3906C149.779 36.3906 150.311 36.4974 150.764 36.7109C151.222 36.9193 151.602 37.2109 151.904 37.5859C152.207 37.9557 152.431 38.3932 152.576 38.8984C152.727 39.4036 152.803 39.9505 152.803 40.5391V41.1875H146.764C146.779 41.5729 146.852 41.9349 146.983 42.2734C147.118 42.612 147.3 42.9089 147.529 43.1641C147.764 43.4141 148.043 43.612 148.365 43.7578C148.688 43.9036 149.045 43.9766 149.436 43.9766C149.951 43.9766 150.41 43.8724 150.811 43.6641C151.212 43.4557 151.545 43.1797 151.811 42.8359L152.694 43.5234C152.553 43.737 152.376 43.9427 152.162 44.1406C151.954 44.3333 151.712 44.5052 151.436 44.6562C151.16 44.8073 150.847 44.9271 150.498 45.0156C150.149 45.1094 149.769 45.1562 149.358 45.1562ZM149.17 37.5781C148.878 37.5781 148.602 37.6328 148.342 37.7422C148.082 37.8464 147.847 38.0026 147.639 38.2109C147.431 38.4141 147.253 38.6667 147.108 38.9688C146.967 39.2656 146.868 39.6094 146.811 40H151.358V39.8906C151.342 39.6094 151.287 39.3307 151.194 39.0547C151.105 38.7786 150.972 38.5312 150.795 38.3125C150.618 38.0938 150.394 37.9167 150.123 37.7812C149.858 37.6458 149.54 37.5781 149.17 37.5781ZM158.342 42L158.717 43.0234L161.295 36.5469H162.912L158.623 46.3047C158.524 46.5234 158.397 46.7552 158.24 47C158.089 47.2448 157.904 47.4714 157.686 47.6797C157.467 47.888 157.212 48.0625 156.92 48.2031C156.628 48.3438 156.293 48.4141 155.912 48.4141C155.845 48.4141 155.769 48.4089 155.686 48.3984C155.602 48.3932 155.519 48.3828 155.436 48.3672C155.352 48.3568 155.274 48.3438 155.201 48.3281C155.128 48.3125 155.069 48.2995 155.022 48.2891L155.256 47.1094C155.293 47.1094 155.342 47.112 155.404 47.1172C155.467 47.1224 155.532 47.1276 155.6 47.1328C155.668 47.138 155.733 47.1406 155.795 47.1406C155.858 47.1458 155.907 47.1484 155.944 47.1484C156.141 47.1484 156.321 47.0938 156.483 46.9844C156.649 46.875 156.795 46.7448 156.92 46.5938C157.05 46.4427 157.16 46.2865 157.248 46.125C157.342 45.9635 157.415 45.8307 157.467 45.7266L158.045 44.6016L154.404 36.5469H156.022L158.342 42ZM166.123 41.9375L166.295 43.1484L166.506 41.9375L167.858 36.5469H168.787L170.131 41.9375L170.358 43.2656L170.569 41.9375L171.506 36.5469H172.787L170.99 45H169.85L168.529 39.8203L168.311 38.5078L168.1 39.8203L166.795 45H165.654L163.858 36.5469H165.139L166.123 41.9375ZM174.045 40.6953C174.045 40.0859 174.134 39.5208 174.311 39C174.488 38.474 174.74 38.0182 175.069 37.6328C175.402 37.2474 175.806 36.9453 176.279 36.7266C176.753 36.5026 177.287 36.3906 177.881 36.3906C178.48 36.3906 179.016 36.5026 179.49 36.7266C179.97 36.9453 180.373 37.2474 180.701 37.6328C181.035 38.0182 181.29 38.474 181.467 39C181.644 39.5208 181.733 40.0859 181.733 40.6953V40.8672C181.733 41.4766 181.644 42.0417 181.467 42.5625C181.29 43.0833 181.035 43.5365 180.701 43.9219C180.373 44.3073 179.972 44.6094 179.498 44.8281C179.024 45.0469 178.49 45.1562 177.897 45.1562C177.298 45.1562 176.759 45.0469 176.279 44.8281C175.806 44.6094 175.402 44.3073 175.069 43.9219C174.74 43.5365 174.488 43.0833 174.311 42.5625C174.134 42.0417 174.045 41.4766 174.045 40.8672V40.6953ZM175.49 40.8672C175.49 41.2839 175.54 41.6823 175.639 42.0625C175.738 42.4375 175.886 42.7682 176.084 43.0547C176.287 43.3411 176.54 43.5677 176.842 43.7344C177.144 43.901 177.496 43.9844 177.897 43.9844C178.293 43.9844 178.639 43.901 178.936 43.7344C179.238 43.5677 179.488 43.3411 179.686 43.0547C179.889 42.7682 180.04 42.4375 180.139 42.0625C180.238 41.6823 180.287 41.2839 180.287 40.8672V40.6953C180.287 40.2839 180.235 39.8906 180.131 39.5156C180.032 39.1354 179.881 38.8021 179.678 38.5156C179.48 38.2292 179.23 38.0026 178.928 37.8359C178.631 37.6641 178.282 37.5781 177.881 37.5781C177.48 37.5781 177.131 37.6641 176.834 37.8359C176.537 38.0026 176.287 38.2292 176.084 38.5156C175.886 38.8021 175.738 39.1354 175.639 39.5156C175.54 39.8906 175.49 40.2839 175.49 40.6953V40.8672ZM189.6 36.3906C189.735 36.3906 189.876 36.3958 190.022 36.4062C190.168 36.4115 190.306 36.4245 190.436 36.4453C190.571 36.4609 190.694 36.4818 190.803 36.5078C190.918 36.5339 191.011 36.5625 191.084 36.5938L190.889 38.0078C190.608 37.9453 190.339 37.901 190.084 37.875C189.834 37.8438 189.571 37.8281 189.295 37.8281C188.618 37.8281 188.069 37.9818 187.647 38.2891C187.23 38.5964 186.923 39.026 186.725 39.5781V45H185.272V36.5469H186.647L186.717 37.8906C187.061 37.4271 187.472 37.0625 187.951 36.7969C188.436 36.526 188.985 36.3906 189.6 36.3906ZM193.397 40.7031C193.397 40.0729 193.475 39.4948 193.631 38.9688C193.793 38.4375 194.019 37.9818 194.311 37.6016C194.608 37.2214 194.964 36.9245 195.381 36.7109C195.798 36.4974 196.264 36.3906 196.779 36.3906C197.285 36.3906 197.725 36.4766 198.1 36.6484C198.48 36.8151 198.808 37.0599 199.084 37.3828V33H200.529V45H199.201L199.139 44.1094C198.858 44.4531 198.522 44.7135 198.131 44.8906C197.74 45.0677 197.285 45.1562 196.764 45.1562C196.253 45.1562 195.79 45.0469 195.373 44.8281C194.962 44.6094 194.61 44.3073 194.319 43.9219C194.027 43.5365 193.8 43.0833 193.639 42.5625C193.477 42.0365 193.397 41.4714 193.397 40.8672V40.7031ZM194.842 40.8672C194.842 41.2786 194.886 41.6693 194.975 42.0391C195.063 42.4089 195.199 42.7344 195.381 43.0156C195.569 43.2969 195.806 43.5208 196.092 43.6875C196.378 43.849 196.722 43.9297 197.123 43.9297C197.368 43.9297 197.589 43.901 197.787 43.8438C197.985 43.7865 198.165 43.7057 198.326 43.6016C198.488 43.4922 198.631 43.3646 198.756 43.2188C198.881 43.0677 198.99 42.901 199.084 42.7188V38.7969C198.897 38.4531 198.644 38.1719 198.326 37.9531C198.009 37.7292 197.613 37.6172 197.139 37.6172C196.733 37.6172 196.384 37.7005 196.092 37.8672C195.806 38.0339 195.569 38.2604 195.381 38.5469C195.199 38.8281 195.063 39.1562 194.975 39.5312C194.886 39.901 194.842 40.2917 194.842 40.7031V40.8672Z"
        fill="black"
        id="key-name-keyword"
    />
    <rect x="71.5365" y="58"
        width="43.5815"
        height="31"
        fill="#3355FF"
        id="key-color-ident"
    />
    <path d="M136.014 67.625H142.889V68.8828H140.162V77.75H142.889V79H136.014V77.75H138.678V68.8828H136.014V67.625ZM145.35 74.7031C145.35 74.0729 145.428 73.4948 145.584 72.9688C145.746 72.4375 145.972 71.9818 146.264 71.6016C146.561 71.2214 146.918 70.9245 147.334 70.7109C147.751 70.4974 148.217 70.3906 148.733 70.3906C149.238 70.3906 149.678 70.4766 150.053 70.6484C150.433 70.8151 150.761 71.0599 151.037 71.3828V67H152.483V79H151.154L151.092 78.1094C150.811 78.4531 150.475 78.7135 150.084 78.8906C149.694 79.0677 149.238 79.1562 148.717 79.1562C148.207 79.1562 147.743 79.0469 147.326 78.8281C146.915 78.6094 146.563 78.3073 146.272 77.9219C145.98 77.5365 145.753 77.0833 145.592 76.5625C145.431 76.0365 145.35 75.4714 145.35 74.8672V74.7031ZM146.795 74.8672C146.795 75.2786 146.839 75.6693 146.928 76.0391C147.016 76.4089 147.152 76.7344 147.334 77.0156C147.522 77.2969 147.759 77.5208 148.045 77.6875C148.332 77.849 148.675 77.9297 149.076 77.9297C149.321 77.9297 149.543 77.901 149.74 77.8438C149.938 77.7865 150.118 77.7057 150.279 77.6016C150.441 77.4922 150.584 77.3646 150.709 77.2188C150.834 77.0677 150.944 76.901 151.037 76.7188V72.7969C150.85 72.4531 150.597 72.1719 150.279 71.9531C149.962 71.7292 149.566 71.6172 149.092 71.6172C148.686 71.6172 148.337 71.7005 148.045 71.8672C147.759 72.0339 147.522 72.2604 147.334 72.5469C147.152 72.8281 147.016 73.1562 146.928 73.5312C146.839 73.901 146.795 74.2917 146.795 74.7031V74.8672ZM158.967 79.1562C158.373 79.1562 157.826 79.0547 157.326 78.8516C156.832 78.6484 156.407 78.3646 156.053 78C155.699 77.6354 155.423 77.2031 155.225 76.7031C155.027 76.2031 154.928 75.6589 154.928 75.0703V74.7422C154.928 74.0599 155.037 73.4505 155.256 72.9141C155.475 72.3724 155.764 71.9167 156.123 71.5469C156.488 71.1719 156.899 70.8854 157.358 70.6875C157.821 70.4896 158.295 70.3906 158.779 70.3906C159.389 70.3906 159.92 70.4974 160.373 70.7109C160.832 70.9193 161.212 71.2109 161.514 71.5859C161.816 71.9557 162.04 72.3932 162.186 72.8984C162.337 73.4036 162.412 73.9505 162.412 74.5391V75.1875H156.373C156.389 75.5729 156.462 75.9349 156.592 76.2734C156.727 76.612 156.91 76.9089 157.139 77.1641C157.373 77.4141 157.652 77.612 157.975 77.7578C158.298 77.9036 158.654 77.9766 159.045 77.9766C159.561 77.9766 160.019 77.8724 160.42 77.6641C160.821 77.4557 161.154 77.1797 161.42 76.8359L162.303 77.5234C162.162 77.737 161.985 77.9427 161.772 78.1406C161.563 78.3333 161.321 78.5052 161.045 78.6562C160.769 78.8073 160.457 78.9271 160.108 79.0156C159.759 79.1094 159.378 79.1562 158.967 79.1562ZM158.779 71.5781C158.488 71.5781 158.212 71.6328 157.951 71.7422C157.691 71.8464 157.457 72.0026 157.248 72.2109C157.04 72.4141 156.863 72.6667 156.717 72.9688C156.576 73.2656 156.477 73.6094 156.42 74H160.967V73.8906C160.951 73.6094 160.897 73.3307 160.803 73.0547C160.714 72.7786 160.582 72.5312 160.404 72.3125C160.227 72.0938 160.003 71.9167 159.733 71.7812C159.467 71.6458 159.149 71.5781 158.779 71.5781ZM166.139 70.5469L166.24 71.7969C166.548 71.3594 166.925 71.0182 167.373 70.7734C167.821 70.5234 168.321 70.3958 168.873 70.3906C169.316 70.3906 169.717 70.4531 170.076 70.5781C170.441 70.7031 170.751 70.8984 171.006 71.1641C171.261 71.4297 171.457 71.7682 171.592 72.1797C171.733 72.5859 171.803 73.0703 171.803 73.6328V79H170.358V73.6641C170.358 73.2891 170.316 72.9714 170.233 72.7109C170.149 72.4505 170.024 72.2396 169.858 72.0781C169.696 71.9167 169.496 71.7995 169.256 71.7266C169.022 71.6536 168.751 71.6172 168.444 71.6172C167.959 71.6172 167.532 71.7396 167.162 71.9844C166.798 72.224 166.506 72.5417 166.287 72.9375V79H164.842V70.5469H166.139ZM177.873 68.5V70.5469H181.092V71.6641H177.873V76.2578C177.873 76.5859 177.915 76.8568 177.998 77.0703C178.082 77.2839 178.196 77.4557 178.342 77.5859C178.488 77.7109 178.654 77.7995 178.842 77.8516C179.035 77.9036 179.238 77.9297 179.451 77.9297C179.608 77.9297 179.769 77.9219 179.936 77.9062C180.102 77.8854 180.264 77.862 180.42 77.8359C180.582 77.8099 180.73 77.7839 180.865 77.7578C181.006 77.7266 181.121 77.7005 181.209 77.6797L181.412 78.7031C181.293 78.776 181.147 78.8411 180.975 78.8984C180.803 78.9505 180.615 78.9948 180.412 79.0312C180.209 79.0729 179.993 79.1042 179.764 79.125C179.54 79.1458 179.316 79.1562 179.092 79.1562C178.717 79.1562 178.365 79.1042 178.037 79C177.714 78.8906 177.433 78.7214 177.194 78.4922C176.954 78.2578 176.764 77.9583 176.623 77.5938C176.488 77.224 176.42 76.7786 176.42 76.2578V71.6641H174.201V70.5469H176.42V68.5H177.873ZM184.287 70.5469H188.608V77.75H191.365V79H184.287V77.75H187.162V71.8047H184.287V70.5469ZM186.975 68.3281C186.975 68.0885 187.045 67.888 187.186 67.7266C187.332 67.5599 187.55 67.4766 187.842 67.4766C188.128 67.4766 188.345 67.5599 188.49 67.7266C188.636 67.888 188.709 68.0885 188.709 68.3281C188.709 68.5625 188.636 68.7578 188.49 68.9141C188.345 69.0703 188.128 69.1484 187.842 69.1484C187.55 69.1484 187.332 69.0703 187.186 68.9141C187.045 68.7578 186.975 68.5625 186.975 68.3281ZM195.826 79V71.6641H193.498V70.5469H195.826V69.9531C195.826 69.4115 195.904 68.9375 196.061 68.5312C196.222 68.1198 196.446 67.776 196.733 67.5C197.024 67.224 197.373 67.0156 197.779 66.875C198.186 66.7344 198.639 66.6641 199.139 66.6641C199.483 66.6641 199.816 66.6927 200.139 66.75C200.467 66.8073 200.803 66.8802 201.147 66.9688L200.975 68.1641C200.761 68.0911 200.511 68.0286 200.225 67.9766C199.944 67.9193 199.641 67.8906 199.319 67.8906C198.641 67.8958 198.131 68.0677 197.787 68.4062C197.449 68.7448 197.279 69.2604 197.279 69.9531V70.5469H200.537V71.6641H197.279V79H195.826ZM203.506 70.5469H207.826V77.75H210.584V79H203.506V77.75H206.381V71.8047H203.506V70.5469ZM206.194 68.3281C206.194 68.0885 206.264 67.888 206.404 67.7266C206.55 67.5599 206.769 67.4766 207.061 67.4766C207.347 67.4766 207.563 67.5599 207.709 67.7266C207.855 67.888 207.928 68.0885 207.928 68.3281C207.928 68.5625 207.855 68.7578 207.709 68.9141C207.563 69.0703 207.347 69.1484 207.061 69.1484C206.769 69.1484 206.55 69.0703 206.404 68.9141C206.264 68.7578 206.194 68.5625 206.194 68.3281ZM216.623 79.1562C216.029 79.1562 215.483 79.0547 214.983 78.8516C214.488 78.6484 214.063 78.3646 213.709 78C213.355 77.6354 213.079 77.2031 212.881 76.7031C212.683 76.2031 212.584 75.6589 212.584 75.0703V74.7422C212.584 74.0599 212.694 73.4505 212.912 72.9141C213.131 72.3724 213.42 71.9167 213.779 71.5469C214.144 71.1719 214.556 70.8854 215.014 70.6875C215.477 70.4896 215.951 70.3906 216.436 70.3906C217.045 70.3906 217.576 70.4974 218.029 70.7109C218.488 70.9193 218.868 71.2109 219.17 71.5859C219.472 71.9557 219.696 72.3932 219.842 72.8984C219.993 73.4036 220.069 73.9505 220.069 74.5391V75.1875H214.029C214.045 75.5729 214.118 75.9349 214.248 76.2734C214.384 76.612 214.566 76.9089 214.795 77.1641C215.029 77.4141 215.308 77.612 215.631 77.7578C215.954 77.9036 216.311 77.9766 216.701 77.9766C217.217 77.9766 217.675 77.8724 218.076 77.6641C218.477 77.4557 218.811 77.1797 219.076 76.8359L219.959 77.5234C219.819 77.737 219.641 77.9427 219.428 78.1406C219.22 78.3333 218.977 78.5052 218.701 78.6562C218.425 78.8073 218.113 78.9271 217.764 79.0156C217.415 79.1094 217.035 79.1562 216.623 79.1562ZM216.436 71.5781C216.144 71.5781 215.868 71.6328 215.608 71.7422C215.347 71.8464 215.113 72.0026 214.904 72.2109C214.696 72.4141 214.519 72.6667 214.373 72.9688C214.233 73.2656 214.134 73.6094 214.076 74H218.623V73.8906C218.608 73.6094 218.553 73.3307 218.459 73.0547C218.371 72.7786 218.238 72.5312 218.061 72.3125C217.884 72.0938 217.66 71.9167 217.389 71.7812C217.123 71.6458 216.806 71.5781 216.436 71.5781ZM228.037 70.3906C228.173 70.3906 228.313 70.3958 228.459 70.4062C228.605 70.4115 228.743 70.4245 228.873 70.4453C229.009 70.4609 229.131 70.4818 229.24 70.5078C229.355 70.5339 229.449 70.5625 229.522 70.5938L229.326 72.0078C229.045 71.9453 228.777 71.901 228.522 71.875C228.272 71.8438 228.009 71.8281 227.733 71.8281C227.056 71.8281 226.506 71.9818 226.084 72.2891C225.668 72.5964 225.36 73.026 225.162 73.5781V79H223.709V70.5469H225.084L225.154 71.8906C225.498 71.4271 225.91 71.0625 226.389 70.7969C226.873 70.526 227.423 70.3906 228.037 70.3906Z"
        fill="black"
        id="key-name-ident"
    />
    <rect x="267" y="58"
        width="43.5815"
        height="31"
        fill="#8800FF"
        id="key-color-other"
    />
    <path d="M338.876 73.9688C338.871 74.375 338.834 74.7865 338.766 75.2031C338.704 75.6146 338.605 76.013 338.47 76.3984C338.334 76.7839 338.16 77.1432 337.946 77.4766C337.738 77.8099 337.488 78.1016 337.196 78.3516C336.904 78.6016 336.568 78.7995 336.188 78.9453C335.813 79.0859 335.391 79.1562 334.923 79.1562C334.454 79.1562 334.029 79.0859 333.649 78.9453C333.274 78.7995 332.941 78.6016 332.649 78.3516C332.358 78.1016 332.105 77.8099 331.891 77.4766C331.678 77.138 331.501 76.776 331.36 76.3906C331.225 76.0052 331.123 75.6068 331.055 75.1953C330.988 74.7839 330.951 74.375 330.946 73.9688V72.6719C330.951 72.2656 330.985 71.8568 331.048 71.4453C331.115 71.0286 331.217 70.6276 331.352 70.2422C331.493 69.8568 331.667 69.4974 331.876 69.1641C332.089 68.8255 332.342 68.5312 332.634 68.2812C332.925 68.026 333.259 67.8281 333.634 67.6875C334.014 67.5417 334.438 67.4688 334.907 67.4688C335.376 67.4688 335.8 67.5417 336.18 67.6875C336.561 67.8281 336.897 68.0234 337.188 68.2734C337.48 68.5234 337.73 68.8177 337.938 69.1562C338.152 69.4896 338.326 69.849 338.462 70.2344C338.602 70.6198 338.704 71.0208 338.766 71.4375C338.834 71.8542 338.871 72.2656 338.876 72.6719V73.9688ZM337.446 72.6562C337.441 72.3854 337.423 72.1042 337.391 71.8125C337.36 71.5156 337.305 71.224 337.227 70.9375C337.154 70.6458 337.055 70.3698 336.93 70.1094C336.805 69.8438 336.649 69.612 336.462 69.4141C336.274 69.2109 336.053 69.0521 335.798 68.9375C335.542 68.8177 335.246 68.7578 334.907 68.7578C334.574 68.7578 334.279 68.8177 334.024 68.9375C333.769 69.0573 333.548 69.2188 333.36 69.4219C333.173 69.6198 333.016 69.8516 332.891 70.1172C332.766 70.3776 332.665 70.6536 332.587 70.9453C332.514 71.2318 332.459 71.5234 332.423 71.8203C332.391 72.112 332.373 72.3906 332.368 72.6562V73.9688C332.373 74.2344 332.391 74.5156 332.423 74.8125C332.459 75.1094 332.516 75.4036 332.595 75.6953C332.673 75.9818 332.774 76.2578 332.899 76.5234C333.024 76.7891 333.18 77.0234 333.368 77.2266C333.555 77.4245 333.777 77.5833 334.032 77.7031C334.287 77.8229 334.584 77.8828 334.923 77.8828C335.261 77.8828 335.558 77.8229 335.813 77.7031C336.074 77.5833 336.295 77.4245 336.477 77.2266C336.665 77.0234 336.818 76.7917 336.938 76.5312C337.063 76.2656 337.162 75.9896 337.235 75.7031C337.313 75.4115 337.365 75.1172 337.391 74.8203C337.423 74.5234 337.441 74.2396 337.446 73.9688V72.6562ZM344.509 68.5V70.5469H347.727V71.6641H344.509V76.2578C344.509 76.5859 344.55 76.8568 344.634 77.0703C344.717 77.2839 344.831 77.4557 344.977 77.5859C345.123 77.7109 345.29 77.7995 345.477 77.8516C345.67 77.9036 345.873 77.9297 346.087 77.9297C346.243 77.9297 346.404 77.9219 346.571 77.9062C346.738 77.8854 346.899 77.862 347.055 77.8359C347.217 77.8099 347.365 77.7839 347.501 77.7578C347.641 77.7266 347.756 77.7005 347.845 77.6797L348.048 78.7031C347.928 78.776 347.782 78.8411 347.61 78.8984C347.438 78.9505 347.251 78.9948 347.048 79.0312C346.845 79.0729 346.628 79.1042 346.399 79.125C346.175 79.1458 345.951 79.1562 345.727 79.1562C345.352 79.1562 345.001 79.1042 344.673 79C344.35 78.8906 344.068 78.7214 343.829 78.4922C343.589 78.2578 343.399 77.9583 343.259 77.5938C343.123 77.224 343.055 76.7786 343.055 76.2578V71.6641H340.837V70.5469H343.055V68.5H344.509ZM352.141 71.8047C352.443 71.362 352.816 71.0182 353.259 70.7734C353.701 70.5234 354.199 70.3958 354.751 70.3906C355.193 70.3906 355.595 70.4557 355.954 70.5859C356.318 70.7109 356.628 70.9089 356.884 71.1797C357.139 71.4505 357.334 71.7943 357.47 72.2109C357.61 72.6224 357.68 73.112 357.68 73.6797V79H356.235V73.6641C356.235 72.9714 356.068 72.4557 355.735 72.1172C355.407 71.7786 354.936 71.612 354.321 71.6172C353.858 71.6172 353.436 71.7318 353.055 71.9609C352.68 72.1849 352.376 72.4844 352.141 72.8594V79H350.696V67H352.141V71.8047ZM364.04 79.1562C363.446 79.1562 362.899 79.0547 362.399 78.8516C361.904 78.6484 361.48 78.3646 361.126 78C360.772 77.6354 360.496 77.2031 360.298 76.7031C360.1 76.2031 360.001 75.6589 360.001 75.0703V74.7422C360.001 74.0599 360.11 73.4505 360.329 72.9141C360.548 72.3724 360.837 71.9167 361.196 71.5469C361.561 71.1719 361.972 70.8854 362.43 70.6875C362.894 70.4896 363.368 70.3906 363.852 70.3906C364.462 70.3906 364.993 70.4974 365.446 70.7109C365.904 70.9193 366.285 71.2109 366.587 71.5859C366.889 71.9557 367.113 72.3932 367.259 72.8984C367.41 73.4036 367.485 73.9505 367.485 74.5391V75.1875H361.446C361.462 75.5729 361.535 75.9349 361.665 76.2734C361.8 76.612 361.983 76.9089 362.212 77.1641C362.446 77.4141 362.725 77.612 363.048 77.7578C363.371 77.9036 363.727 77.9766 364.118 77.9766C364.634 77.9766 365.092 77.8724 365.493 77.6641C365.894 77.4557 366.227 77.1797 366.493 76.8359L367.376 77.5234C367.235 77.737 367.058 77.9427 366.845 78.1406C366.636 78.3333 366.394 78.5052 366.118 78.6562C365.842 78.8073 365.529 78.9271 365.18 79.0156C364.831 79.1094 364.451 79.1562 364.04 79.1562ZM363.852 71.5781C363.561 71.5781 363.285 71.6328 363.024 71.7422C362.764 71.8464 362.529 72.0026 362.321 72.2109C362.113 72.4141 361.936 72.6667 361.79 72.9688C361.649 73.2656 361.55 73.6094 361.493 74H366.04V73.8906C366.024 73.6094 365.97 73.3307 365.876 73.0547C365.787 72.7786 365.654 72.5312 365.477 72.3125C365.3 72.0938 365.076 71.9167 364.805 71.7812C364.54 71.6458 364.222 71.5781 363.852 71.5781ZM375.454 70.3906C375.589 70.3906 375.73 70.3958 375.876 70.4062C376.022 70.4115 376.16 70.4245 376.29 70.4453C376.425 70.4609 376.548 70.4818 376.657 70.5078C376.772 70.5339 376.865 70.5625 376.938 70.5938L376.743 72.0078C376.462 71.9453 376.193 71.901 375.938 71.875C375.688 71.8438 375.425 71.8281 375.149 71.8281C374.472 71.8281 373.923 71.9818 373.501 72.2891C373.084 72.5964 372.777 73.026 372.579 73.5781V79H371.126V70.5469H372.501L372.571 71.8906C372.915 71.4271 373.326 71.0625 373.805 70.7969C374.29 70.526 374.839 70.3906 375.454 70.3906Z"
        fill="black"
        id="key-name-other"
    />
    <rect x="267" y="24"
        width="43.5815"
        height="31"
        fill="#880000"
        id="key-color-punct"
    />
    <path d="M325.541 40.4375V45H324.096V33.625H327.784C328.294 33.6354 328.776 33.7161 329.229 33.8672C329.687 34.0182 330.088 34.237 330.432 34.5234C330.776 34.8099 331.047 35.1641 331.245 35.5859C331.448 36.0078 331.549 36.4922 331.549 37.0391C331.549 37.5859 331.448 38.0703 331.245 38.4922C331.047 38.9089 330.776 39.2604 330.432 39.5469C330.088 39.8333 329.687 40.0521 329.229 40.2031C328.776 40.3542 328.294 40.4323 327.784 40.4375H325.541ZM325.541 39.25H327.784C328.117 39.2448 328.424 39.1927 328.705 39.0938C328.987 38.9896 329.232 38.8438 329.44 38.6562C329.648 38.4688 329.81 38.2422 329.924 37.9766C330.044 37.7057 330.104 37.3984 330.104 37.0547C330.104 36.7109 330.044 36.401 329.924 36.125C329.81 35.849 329.648 35.6146 329.44 35.4219C329.237 35.2292 328.992 35.0807 328.705 34.9766C328.424 34.8724 328.117 34.8177 327.784 34.8125H325.541V39.25ZM339.057 43.8359C338.776 44.2526 338.424 44.5781 338.002 44.8125C337.58 45.0417 337.093 45.1562 336.541 45.1562C336.099 45.1562 335.698 45.0885 335.338 44.9531C334.979 44.8125 334.672 44.5964 334.416 44.3047C334.161 44.013 333.963 43.6432 333.823 43.1953C333.687 42.7422 333.62 42.2005 333.62 41.5703V36.5469H335.065V41.5859C335.065 42.0443 335.101 42.4245 335.174 42.7266C335.247 43.0286 335.357 43.2708 335.502 43.4531C335.648 43.6302 335.825 43.7552 336.034 43.8281C336.247 43.901 336.492 43.9375 336.768 43.9375C337.357 43.9375 337.83 43.8177 338.19 43.5781C338.554 43.3385 338.825 43.0156 339.002 42.6094V36.5469H340.455V45H339.143L339.057 43.8359ZM344.479 36.5469L344.58 37.7969C344.888 37.3594 345.265 37.0182 345.713 36.7734C346.161 36.5234 346.661 36.3958 347.213 36.3906C347.656 36.3906 348.057 36.4531 348.416 36.5781C348.781 36.7031 349.091 36.8984 349.346 37.1641C349.601 37.4297 349.797 37.7682 349.932 38.1797C350.073 38.5859 350.143 39.0703 350.143 39.6328V45H348.698V39.6641C348.698 39.2891 348.656 38.9714 348.573 38.7109C348.489 38.4505 348.364 38.2396 348.198 38.0781C348.036 37.9167 347.836 37.7995 347.596 37.7266C347.362 37.6536 347.091 37.6172 346.784 37.6172C346.299 37.6172 345.872 37.7396 345.502 37.9844C345.138 38.224 344.846 38.5417 344.627 38.9375V45H343.182V36.5469H344.479ZM356.393 43.9844C356.653 43.9844 356.906 43.9427 357.151 43.8594C357.401 43.776 357.622 43.6615 357.815 43.5156C358.008 43.3646 358.161 43.1901 358.276 42.9922C358.396 42.7891 358.458 42.5703 358.463 42.3359H359.83C359.825 42.7109 359.726 43.0703 359.534 43.4141C359.346 43.7526 359.093 44.0521 358.776 44.3125C358.458 44.5677 358.093 44.7734 357.682 44.9297C357.271 45.0807 356.841 45.1562 356.393 45.1562C355.752 45.1562 355.192 45.0417 354.713 44.8125C354.234 44.5833 353.833 44.276 353.51 43.8906C353.192 43.5 352.953 43.0521 352.791 42.5469C352.63 42.0365 352.549 41.5 352.549 40.9375V40.6094C352.549 40.0521 352.63 39.5182 352.791 39.0078C352.953 38.4974 353.192 38.0495 353.51 37.6641C353.833 37.2734 354.234 36.9635 354.713 36.7344C355.192 36.5052 355.752 36.3906 356.393 36.3906C356.893 36.3906 357.351 36.4714 357.768 36.6328C358.19 36.7891 358.552 37.0052 358.854 37.2812C359.161 37.5521 359.401 37.875 359.573 38.25C359.745 38.625 359.83 39.026 359.83 39.4531H358.463C358.458 39.1979 358.401 38.9583 358.291 38.7344C358.187 38.5052 358.044 38.3047 357.862 38.1328C357.679 37.9609 357.461 37.8255 357.205 37.7266C356.955 37.6276 356.685 37.5781 356.393 37.5781C355.945 37.5781 355.567 37.6693 355.26 37.8516C354.958 38.0286 354.713 38.263 354.526 38.5547C354.338 38.8411 354.203 39.1641 354.12 39.5234C354.041 39.8828 354.002 40.2448 354.002 40.6094V40.9375C354.002 41.3073 354.041 41.6745 354.12 42.0391C354.203 42.3984 354.336 42.724 354.518 43.0156C354.705 43.3021 354.95 43.5365 355.252 43.7188C355.56 43.8958 355.94 43.9844 356.393 43.9844ZM365.823 34.5V36.5469H369.041V37.6641H365.823V42.2578C365.823 42.5859 365.864 42.8568 365.948 43.0703C366.031 43.2839 366.146 43.4557 366.291 43.5859C366.437 43.7109 366.604 43.7995 366.791 43.8516C366.984 43.9036 367.187 43.9297 367.401 43.9297C367.557 43.9297 367.718 43.9219 367.885 43.9062C368.052 43.8854 368.213 43.862 368.37 43.8359C368.531 43.8099 368.679 43.7839 368.815 43.7578C368.955 43.7266 369.07 43.7005 369.159 43.6797L369.362 44.7031C369.242 44.776 369.096 44.8411 368.924 44.8984C368.752 44.9505 368.565 44.9948 368.362 45.0312C368.159 45.0729 367.942 45.1042 367.713 45.125C367.489 45.1458 367.265 45.1562 367.041 45.1562C366.666 45.1562 366.315 45.1042 365.987 45C365.664 44.8906 365.383 44.7214 365.143 44.4922C364.903 44.2578 364.713 43.9583 364.573 43.5938C364.437 43.224 364.37 42.7786 364.37 42.2578V37.6641H362.151V36.5469H364.37V34.5H365.823ZM377.495 43.8359C377.213 44.2526 376.862 44.5781 376.44 44.8125C376.018 45.0417 375.531 45.1562 374.979 45.1562C374.536 45.1562 374.135 45.0885 373.776 44.9531C373.416 44.8125 373.109 44.5964 372.854 44.3047C372.599 44.013 372.401 43.6432 372.26 43.1953C372.125 42.7422 372.057 42.2005 372.057 41.5703V36.5469H373.502V41.5859C373.502 42.0443 373.539 42.4245 373.612 42.7266C373.685 43.0286 373.794 43.2708 373.94 43.4531C374.086 43.6302 374.263 43.7552 374.471 43.8281C374.685 43.901 374.929 43.9375 375.205 43.9375C375.794 43.9375 376.268 43.8177 376.627 43.5781C376.992 43.3385 377.263 43.0156 377.44 42.6094V36.5469H378.893V45H377.58L377.495 43.8359ZM387.174 45C387.117 44.8906 387.07 44.7552 387.034 44.5938C387.002 44.4271 386.979 44.2552 386.963 44.0781C386.817 44.224 386.653 44.362 386.471 44.4922C386.294 44.6224 386.096 44.737 385.877 44.8359C385.664 44.9349 385.435 45.013 385.19 45.0703C384.945 45.1276 384.685 45.1562 384.409 45.1562C383.961 45.1562 383.554 45.0911 383.19 44.9609C382.83 44.8307 382.523 44.6562 382.268 44.4375C382.018 44.2135 381.823 43.9505 381.682 43.6484C381.547 43.3411 381.479 43.0104 381.479 42.6562C381.479 42.1927 381.57 41.7865 381.752 41.4375C381.94 41.0885 382.203 40.7995 382.541 40.5703C382.88 40.3359 383.286 40.1615 383.76 40.0469C384.239 39.9323 384.773 39.875 385.362 39.875H386.94V39.2109C386.94 38.9557 386.893 38.7266 386.799 38.5234C386.705 38.3203 386.573 38.1484 386.401 38.0078C386.229 37.862 386.018 37.75 385.768 37.6719C385.523 37.5938 385.247 37.5547 384.94 37.5547C384.653 37.5547 384.396 37.5911 384.166 37.6641C383.942 37.737 383.752 37.8333 383.596 37.9531C383.44 38.0729 383.317 38.2161 383.229 38.3828C383.146 38.5443 383.104 38.7135 383.104 38.8906H381.651C381.656 38.5833 381.734 38.2812 381.885 37.9844C382.041 37.6875 382.263 37.4219 382.549 37.1875C382.841 36.9479 383.192 36.7552 383.604 36.6094C384.021 36.4635 384.492 36.3906 385.018 36.3906C385.497 36.3906 385.942 36.4505 386.354 36.5703C386.765 36.6849 387.12 36.862 387.416 37.1016C387.718 37.3359 387.955 37.6302 388.127 37.9844C388.299 38.3385 388.385 38.7526 388.385 39.2266V43.1562C388.385 43.4375 388.411 43.737 388.463 44.0547C388.515 44.3672 388.588 44.6406 388.682 44.875V45H387.174ZM384.62 43.8984C384.901 43.8984 385.164 43.862 385.409 43.7891C385.653 43.7161 385.875 43.6198 386.073 43.5C386.276 43.3802 386.45 43.2448 386.596 43.0938C386.742 42.9375 386.857 42.776 386.94 42.6094V40.8984H385.596C384.752 40.8984 384.096 41.0234 383.627 41.2734C383.159 41.5234 382.924 41.9167 382.924 42.4531C382.924 42.6615 382.958 42.8542 383.026 43.0312C383.099 43.2083 383.205 43.362 383.346 43.4922C383.487 43.6172 383.664 43.7161 383.877 43.7891C384.091 43.862 384.338 43.8984 384.62 43.8984ZM394.651 34.5V36.5469H397.87V37.6641H394.651V42.2578C394.651 42.5859 394.692 42.8568 394.776 43.0703C394.859 43.2839 394.974 43.4557 395.12 43.5859C395.265 43.7109 395.432 43.7995 395.62 43.8516C395.812 43.9036 396.015 43.9297 396.229 43.9297C396.385 43.9297 396.547 43.9219 396.713 43.9062C396.88 43.8854 397.041 43.862 397.198 43.8359C397.359 43.8099 397.508 43.7839 397.643 43.7578C397.784 43.7266 397.898 43.7005 397.987 43.6797L398.19 44.7031C398.07 44.776 397.924 44.8411 397.752 44.8984C397.58 44.9505 397.393 44.9948 397.19 45.0312C396.987 45.0729 396.771 45.1042 396.541 45.125C396.317 45.1458 396.093 45.1562 395.87 45.1562C395.495 45.1562 395.143 45.1042 394.815 45C394.492 44.8906 394.211 44.7214 393.971 44.4922C393.732 44.2578 393.541 43.9583 393.401 43.5938C393.265 43.224 393.198 42.7786 393.198 42.2578V37.6641H390.979V36.5469H393.198V34.5H394.651ZM401.065 36.5469H405.385V43.75H408.143V45H401.065V43.75H403.94V37.8047H401.065V36.5469ZM403.752 34.3281C403.752 34.0885 403.823 33.888 403.963 33.7266C404.109 33.5599 404.328 33.4766 404.62 33.4766C404.906 33.4766 405.122 33.5599 405.268 33.7266C405.414 33.888 405.487 34.0885 405.487 34.3281C405.487 34.5625 405.414 34.7578 405.268 34.9141C405.122 35.0703 404.906 35.1484 404.62 35.1484C404.328 35.1484 404.109 35.0703 403.963 34.9141C403.823 34.7578 403.752 34.5625 403.752 34.3281ZM410.041 40.6953C410.041 40.0859 410.13 39.5208 410.307 39C410.484 38.474 410.737 38.0182 411.065 37.6328C411.398 37.2474 411.802 36.9453 412.276 36.7266C412.75 36.5026 413.284 36.3906 413.877 36.3906C414.476 36.3906 415.013 36.5026 415.487 36.7266C415.966 36.9453 416.37 37.2474 416.698 37.6328C417.031 38.0182 417.286 38.474 417.463 39C417.64 39.5208 417.729 40.0859 417.729 40.6953V40.8672C417.729 41.4766 417.64 42.0417 417.463 42.5625C417.286 43.0833 417.031 43.5365 416.698 43.9219C416.37 44.3073 415.968 44.6094 415.495 44.8281C415.021 45.0469 414.487 45.1562 413.893 45.1562C413.294 45.1562 412.755 45.0469 412.276 44.8281C411.802 44.6094 411.398 44.3073 411.065 43.9219C410.737 43.5365 410.484 43.0833 410.307 42.5625C410.13 42.0417 410.041 41.4766 410.041 40.8672V40.6953ZM411.487 40.8672C411.487 41.2839 411.536 41.6823 411.635 42.0625C411.734 42.4375 411.883 42.7682 412.08 43.0547C412.284 43.3411 412.536 43.5677 412.838 43.7344C413.14 43.901 413.492 43.9844 413.893 43.9844C414.289 43.9844 414.635 43.901 414.932 43.7344C415.234 43.5677 415.484 43.3411 415.682 43.0547C415.885 42.7682 416.036 42.4375 416.135 42.0625C416.234 41.6823 416.284 41.2839 416.284 40.8672V40.6953C416.284 40.2839 416.232 39.8906 416.127 39.5156C416.028 39.1354 415.877 38.8021 415.674 38.5156C415.476 38.2292 415.226 38.0026 414.924 37.8359C414.627 37.6641 414.278 37.5781 413.877 37.5781C413.476 37.5781 413.127 37.6641 412.83 37.8359C412.534 38.0026 412.284 38.2292 412.08 38.5156C411.883 38.8021 411.734 39.1354 411.635 39.5156C411.536 39.8906 411.487 40.2839 411.487 40.6953V40.8672ZM421.354 36.5469L421.455 37.7969C421.763 37.3594 422.14 37.0182 422.588 36.7734C423.036 36.5234 423.536 36.3958 424.088 36.3906C424.531 36.3906 424.932 36.4531 425.291 36.5781C425.656 36.7031 425.966 36.8984 426.221 37.1641C426.476 37.4297 426.672 37.7682 426.807 38.1797C426.948 38.5859 427.018 39.0703 427.018 39.6328V45H425.573V39.6641C425.573 39.2891 425.531 38.9714 425.448 38.7109C425.364 38.4505 425.239 38.2396 425.073 38.0781C424.911 37.9167 424.711 37.7995 424.471 37.7266C424.237 37.6536 423.966 37.6172 423.659 37.6172C423.174 37.6172 422.747 37.7396 422.377 37.9844C422.013 38.224 421.721 38.5417 421.502 38.9375V45H420.057V36.5469H421.354Z"
        fill="black"
        id="key-name-punct"
    />
    <rect x="420" y="58"
        width="43.5815"
        height="31"
        fill="#888800"
        id="key-color-special"
    />
    <path d="M482.916 66.125C482.916 65.776 482.836 65.4818 482.674 65.2422C482.518 65.0026 482.315 64.8021 482.065 64.6406C481.815 64.474 481.539 64.3359 481.237 64.2266C480.94 64.1172 480.653 64.0182 480.377 63.9297C479.976 63.7995 479.567 63.6432 479.151 63.4609C478.739 63.2786 478.362 63.0547 478.018 62.7891C477.679 62.5234 477.401 62.2109 477.182 61.8516C476.968 61.487 476.862 61.0599 476.862 60.5703C476.862 60.0807 476.968 59.6432 477.182 59.2578C477.401 58.8724 477.685 58.5469 478.034 58.2812C478.383 58.0156 478.778 57.8151 479.221 57.6797C479.664 57.5391 480.109 57.4688 480.557 57.4688C481.052 57.4688 481.528 57.5521 481.987 57.7188C482.445 57.8802 482.851 58.1094 483.205 58.4062C483.56 58.7031 483.843 59.0625 484.057 59.4844C484.271 59.9062 484.383 60.3776 484.393 60.8984H482.909C482.867 60.5703 482.786 60.2734 482.666 60.0078C482.547 59.737 482.388 59.5052 482.19 59.3125C481.992 59.1198 481.755 58.9714 481.479 58.8672C481.208 58.7578 480.901 58.7031 480.557 58.7031C480.281 58.7031 480.01 58.7422 479.745 58.8203C479.484 58.8984 479.25 59.0156 479.041 59.1719C478.838 59.3281 478.674 59.5208 478.549 59.75C478.429 59.9792 478.37 60.2448 478.37 60.5469C478.375 60.875 478.458 61.1536 478.62 61.3828C478.781 61.6068 478.984 61.7969 479.229 61.9531C479.479 62.1094 479.747 62.2396 480.034 62.3438C480.325 62.4479 480.599 62.5391 480.854 62.6172C481.135 62.7057 481.419 62.8073 481.705 62.9219C481.992 63.0312 482.268 63.1589 482.534 63.3047C482.799 63.4505 483.047 63.6146 483.276 63.7969C483.505 63.9792 483.705 64.1875 483.877 64.4219C484.049 64.651 484.182 64.9062 484.276 65.1875C484.375 65.4635 484.424 65.7708 484.424 66.1094C484.424 66.6198 484.31 67.0651 484.08 67.4453C483.857 67.8255 483.565 68.1432 483.205 68.3984C482.846 68.6484 482.44 68.8385 481.987 68.9688C481.534 69.0938 481.08 69.1562 480.627 69.1562C480.122 69.1562 479.627 69.0781 479.143 68.9219C478.659 68.7656 478.224 68.5417 477.838 68.25C477.458 67.9531 477.148 67.5938 476.909 67.1719C476.669 66.7448 476.541 66.2604 476.526 65.7188H478.002C478.049 66.0729 478.146 66.388 478.291 66.6641C478.437 66.9349 478.625 67.1667 478.854 67.3594C479.083 67.5469 479.346 67.6901 479.643 67.7891C479.945 67.8828 480.273 67.9297 480.627 67.9297C480.909 67.9297 481.185 67.8958 481.455 67.8281C481.732 67.7552 481.976 67.6458 482.19 67.5C482.403 67.349 482.578 67.1615 482.713 66.9375C482.849 66.7083 482.916 66.4375 482.916 66.125ZM493.705 64.8672C493.705 65.4714 493.633 66.0365 493.487 66.5625C493.341 67.0833 493.127 67.5365 492.846 67.9219C492.565 68.3073 492.216 68.6094 491.799 68.8281C491.388 69.0469 490.916 69.1562 490.385 69.1562C489.87 69.1562 489.414 69.0729 489.018 68.9062C488.627 68.7396 488.291 68.5 488.01 68.1875V72.25H486.565V60.5469H487.885L487.955 61.4688C488.237 61.1198 488.575 60.8542 488.971 60.6719C489.372 60.4844 489.836 60.3906 490.362 60.3906C490.903 60.3906 491.383 60.4974 491.799 60.7109C492.216 60.9245 492.565 61.2214 492.846 61.6016C493.127 61.9818 493.341 62.4375 493.487 62.9688C493.633 63.4948 493.705 64.0729 493.705 64.7031V64.8672ZM492.26 64.7031C492.26 64.2917 492.213 63.901 492.12 63.5312C492.031 63.1562 491.89 62.8281 491.698 62.5469C491.51 62.2604 491.271 62.0339 490.979 61.8672C490.687 61.7005 490.338 61.6172 489.932 61.6172C489.468 61.6172 489.078 61.7266 488.76 61.9453C488.448 62.1589 488.198 62.4349 488.01 62.7734V66.8438C488.198 67.1771 488.448 67.4505 488.76 67.6641C489.073 67.8724 489.468 67.9766 489.948 67.9766C490.349 67.9766 490.695 67.8932 490.987 67.7266C491.278 67.5547 491.518 67.3255 491.705 67.0391C491.893 66.7526 492.031 66.4219 492.12 66.0469C492.213 65.6719 492.26 65.2786 492.26 64.8672V64.7031ZM499.916 69.1562C499.323 69.1562 498.776 69.0547 498.276 68.8516C497.781 68.6484 497.357 68.3646 497.002 68C496.648 67.6354 496.372 67.2031 496.174 66.7031C495.976 66.2031 495.877 65.6589 495.877 65.0703V64.7422C495.877 64.0599 495.987 63.4505 496.205 62.9141C496.424 62.3724 496.713 61.9167 497.073 61.5469C497.437 61.1719 497.849 60.8854 498.307 60.6875C498.771 60.4896 499.245 60.3906 499.729 60.3906C500.338 60.3906 500.87 60.4974 501.323 60.7109C501.781 60.9193 502.161 61.2109 502.463 61.5859C502.765 61.9557 502.989 62.3932 503.135 62.8984C503.286 63.4036 503.362 63.9505 503.362 64.5391V65.1875H497.323C497.338 65.5729 497.411 65.9349 497.541 66.2734C497.677 66.612 497.859 66.9089 498.088 67.1641C498.323 67.4141 498.601 67.612 498.924 67.7578C499.247 67.9036 499.604 67.9766 499.995 67.9766C500.51 67.9766 500.968 67.8724 501.37 67.6641C501.771 67.4557 502.104 67.1797 502.37 66.8359L503.252 67.5234C503.112 67.737 502.935 67.9427 502.721 68.1406C502.513 68.3333 502.271 68.5052 501.995 68.6562C501.718 68.8073 501.406 68.9271 501.057 69.0156C500.708 69.1094 500.328 69.1562 499.916 69.1562ZM499.729 61.5781C499.437 61.5781 499.161 61.6328 498.901 61.7422C498.64 61.8464 498.406 62.0026 498.198 62.2109C497.989 62.4141 497.812 62.6667 497.666 62.9688C497.526 63.2656 497.427 63.6094 497.37 64H501.916V63.8906C501.901 63.6094 501.846 63.3307 501.752 63.0547C501.664 62.7786 501.531 62.5312 501.354 62.3125C501.177 62.0938 500.953 61.9167 500.682 61.7812C500.416 61.6458 500.099 61.5781 499.729 61.5781ZM509.393 67.9844C509.653 67.9844 509.906 67.9427 510.151 67.8594C510.401 67.776 510.622 67.6615 510.815 67.5156C511.008 67.3646 511.161 67.1901 511.276 66.9922C511.396 66.7891 511.458 66.5703 511.463 66.3359H512.83C512.825 66.7109 512.726 67.0703 512.534 67.4141C512.346 67.7526 512.093 68.0521 511.776 68.3125C511.458 68.5677 511.093 68.7734 510.682 68.9297C510.271 69.0807 509.841 69.1562 509.393 69.1562C508.752 69.1562 508.192 69.0417 507.713 68.8125C507.234 68.5833 506.833 68.276 506.51 67.8906C506.192 67.5 505.953 67.0521 505.791 66.5469C505.63 66.0365 505.549 65.5 505.549 64.9375V64.6094C505.549 64.0521 505.63 63.5182 505.791 63.0078C505.953 62.4974 506.192 62.0495 506.51 61.6641C506.833 61.2734 507.234 60.9635 507.713 60.7344C508.192 60.5052 508.752 60.3906 509.393 60.3906C509.893 60.3906 510.351 60.4714 510.768 60.6328C511.19 60.7891 511.552 61.0052 511.854 61.2812C512.161 61.5521 512.401 61.875 512.573 62.25C512.745 62.625 512.83 63.026 512.83 63.4531H511.463C511.458 63.1979 511.401 62.9583 511.291 62.7344C511.187 62.5052 511.044 62.3047 510.862 62.1328C510.679 61.9609 510.461 61.8255 510.205 61.7266C509.955 61.6276 509.685 61.5781 509.393 61.5781C508.945 61.5781 508.567 61.6693 508.26 61.8516C507.958 62.0286 507.713 62.263 507.526 62.5547C507.338 62.8411 507.203 63.1641 507.12 63.5234C507.041 63.8828 507.002 64.2448 507.002 64.6094V64.9375C507.002 65.3073 507.041 65.6745 507.12 66.0391C507.203 66.3984 507.336 66.724 507.518 67.0156C507.705 67.3021 507.95 67.5365 508.252 67.7188C508.56 67.8958 508.94 67.9844 509.393 67.9844ZM515.627 60.5469H519.948V67.75H522.705V69H515.627V67.75H518.502V61.8047H515.627V60.5469ZM518.315 58.3281C518.315 58.0885 518.385 57.888 518.526 57.7266C518.672 57.5599 518.89 57.4766 519.182 57.4766C519.468 57.4766 519.685 57.5599 519.83 57.7266C519.976 57.888 520.049 58.0885 520.049 58.3281C520.049 58.5625 519.976 58.7578 519.83 58.9141C519.685 59.0703 519.468 59.1484 519.182 59.1484C518.89 59.1484 518.672 59.0703 518.526 58.9141C518.385 58.7578 518.315 58.5625 518.315 58.3281ZM530.565 69C530.508 68.8906 530.461 68.7552 530.424 68.5938C530.393 68.4271 530.37 68.2552 530.354 68.0781C530.208 68.224 530.044 68.362 529.862 68.4922C529.685 68.6224 529.487 68.737 529.268 68.8359C529.054 68.9349 528.825 69.013 528.58 69.0703C528.336 69.1276 528.075 69.1562 527.799 69.1562C527.351 69.1562 526.945 69.0911 526.58 68.9609C526.221 68.8307 525.914 68.6562 525.659 68.4375C525.409 68.2135 525.213 67.9505 525.073 67.6484C524.937 67.3411 524.87 67.0104 524.87 66.6562C524.87 66.1927 524.961 65.7865 525.143 65.4375C525.33 65.0885 525.593 64.7995 525.932 64.5703C526.271 64.3359 526.677 64.1615 527.151 64.0469C527.63 63.9323 528.164 63.875 528.752 63.875H530.33V63.2109C530.33 62.9557 530.284 62.7266 530.19 62.5234C530.096 62.3203 529.963 62.1484 529.791 62.0078C529.62 61.862 529.409 61.75 529.159 61.6719C528.914 61.5938 528.638 61.5547 528.33 61.5547C528.044 61.5547 527.786 61.5911 527.557 61.6641C527.333 61.737 527.143 61.8333 526.987 61.9531C526.83 62.0729 526.708 62.2161 526.62 62.3828C526.536 62.5443 526.495 62.7135 526.495 62.8906H525.041C525.047 62.5833 525.125 62.2812 525.276 61.9844C525.432 61.6875 525.653 61.4219 525.94 61.1875C526.232 60.9479 526.583 60.7552 526.995 60.6094C527.411 60.4635 527.883 60.3906 528.409 60.3906C528.888 60.3906 529.333 60.4505 529.745 60.5703C530.156 60.6849 530.51 60.862 530.807 61.1016C531.109 61.3359 531.346 61.6302 531.518 61.9844C531.69 62.3385 531.776 62.7526 531.776 63.2266V67.1562C531.776 67.4375 531.802 67.737 531.854 68.0547C531.906 68.3672 531.979 68.6406 532.073 68.875V69H530.565ZM528.01 67.8984C528.291 67.8984 528.554 67.862 528.799 67.7891C529.044 67.7161 529.265 67.6198 529.463 67.5C529.666 67.3802 529.841 67.2448 529.987 67.0938C530.133 66.9375 530.247 66.776 530.33 66.6094V64.8984H528.987C528.143 64.8984 527.487 65.0234 527.018 65.2734C526.549 65.5234 526.315 65.9167 526.315 66.4531C526.315 66.6615 526.349 66.8542 526.416 67.0312C526.489 67.2083 526.596 67.362 526.737 67.4922C526.877 67.6172 527.054 67.7161 527.268 67.7891C527.482 67.862 527.729 67.8984 528.01 67.8984ZM534.846 57H539.166V67.75H541.924V69H534.846V67.75H537.721V58.2578H534.846V57ZM478.541 83.4375V88H477.096V76.625H480.784C481.294 76.6354 481.776 76.7161 482.229 76.8672C482.687 77.0182 483.088 77.237 483.432 77.5234C483.776 77.8099 484.047 78.1641 484.245 78.5859C484.448 79.0078 484.549 79.4922 484.549 80.0391C484.549 80.5859 484.448 81.0703 484.245 81.4922C484.047 81.9089 483.776 82.2604 483.432 82.5469C483.088 82.8333 482.687 83.0521 482.229 83.2031C481.776 83.3542 481.294 83.4323 480.784 83.4375H478.541ZM478.541 82.25H480.784C481.117 82.2448 481.424 82.1927 481.705 82.0938C481.987 81.9896 482.232 81.8438 482.44 81.6562C482.648 81.4688 482.81 81.2422 482.924 80.9766C483.044 80.7057 483.104 80.3984 483.104 80.0547C483.104 79.7109 483.044 79.401 482.924 79.125C482.81 78.849 482.648 78.6146 482.44 78.4219C482.237 78.2292 481.992 78.0807 481.705 77.9766C481.424 77.8724 481.117 77.8177 480.784 77.8125H478.541V82.25ZM492.057 86.8359C491.776 87.2526 491.424 87.5781 491.002 87.8125C490.58 88.0417 490.093 88.1562 489.541 88.1562C489.099 88.1562 488.698 88.0885 488.338 87.9531C487.979 87.8125 487.672 87.5964 487.416 87.3047C487.161 87.013 486.963 86.6432 486.823 86.1953C486.687 85.7422 486.62 85.2005 486.62 84.5703V79.5469H488.065V84.5859C488.065 85.0443 488.101 85.4245 488.174 85.7266C488.247 86.0286 488.357 86.2708 488.502 86.4531C488.648 86.6302 488.825 86.7552 489.034 86.8281C489.247 86.901 489.492 86.9375 489.768 86.9375C490.357 86.9375 490.83 86.8177 491.19 86.5781C491.554 86.3385 491.825 86.0156 492.002 85.6094V79.5469H493.455V88H492.143L492.057 86.8359ZM497.479 79.5469L497.58 80.7969C497.888 80.3594 498.265 80.0182 498.713 79.7734C499.161 79.5234 499.661 79.3958 500.213 79.3906C500.656 79.3906 501.057 79.4531 501.416 79.5781C501.781 79.7031 502.091 79.8984 502.346 80.1641C502.601 80.4297 502.797 80.7682 502.932 81.1797C503.073 81.5859 503.143 82.0703 503.143 82.6328V88H501.698V82.6641C501.698 82.2891 501.656 81.9714 501.573 81.7109C501.489 81.4505 501.364 81.2396 501.198 81.0781C501.036 80.9167 500.836 80.7995 500.596 80.7266C500.362 80.6536 500.091 80.6172 499.784 80.6172C499.299 80.6172 498.872 80.7396 498.502 80.9844C498.138 81.224 497.846 81.5417 497.627 81.9375V88H496.182V79.5469H497.479ZM509.393 86.9844C509.653 86.9844 509.906 86.9427 510.151 86.8594C510.401 86.776 510.622 86.6615 510.815 86.5156C511.008 86.3646 511.161 86.1901 511.276 85.9922C511.396 85.7891 511.458 85.5703 511.463 85.3359H512.83C512.825 85.7109 512.726 86.0703 512.534 86.4141C512.346 86.7526 512.093 87.0521 511.776 87.3125C511.458 87.5677 511.093 87.7734 510.682 87.9297C510.271 88.0807 509.841 88.1562 509.393 88.1562C508.752 88.1562 508.192 88.0417 507.713 87.8125C507.234 87.5833 506.833 87.276 506.51 86.8906C506.192 86.5 505.953 86.0521 505.791 85.5469C505.63 85.0365 505.549 84.5 505.549 83.9375V83.6094C505.549 83.0521 505.63 82.5182 505.791 82.0078C505.953 81.4974 506.192 81.0495 506.51 80.6641C506.833 80.2734 507.234 79.9635 507.713 79.7344C508.192 79.5052 508.752 79.3906 509.393 79.3906C509.893 79.3906 510.351 79.4714 510.768 79.6328C511.19 79.7891 511.552 80.0052 511.854 80.2812C512.161 80.5521 512.401 80.875 512.573 81.25C512.745 81.625 512.83 82.026 512.83 82.4531H511.463C511.458 82.1979 511.401 81.9583 511.291 81.7344C511.187 81.5052 511.044 81.3047 510.862 81.1328C510.679 80.9609 510.461 80.8255 510.205 80.7266C509.955 80.6276 509.685 80.5781 509.393 80.5781C508.945 80.5781 508.567 80.6693 508.26 80.8516C507.958 81.0286 507.713 81.263 507.526 81.5547C507.338 81.8411 507.203 82.1641 507.12 82.5234C507.041 82.8828 507.002 83.2448 507.002 83.6094V83.9375C507.002 84.3073 507.041 84.6745 507.12 85.0391C507.203 85.3984 507.336 85.724 507.518 86.0156C507.705 86.3021 507.95 86.5365 508.252 86.7188C508.56 86.8958 508.94 86.9844 509.393 86.9844ZM518.823 77.5V79.5469H522.041V80.6641H518.823V85.2578C518.823 85.5859 518.864 85.8568 518.948 86.0703C519.031 86.2839 519.146 86.4557 519.291 86.5859C519.437 86.7109 519.604 86.7995 519.791 86.8516C519.984 86.9036 520.187 86.9297 520.401 86.9297C520.557 86.9297 520.718 86.9219 520.885 86.9062C521.052 86.8854 521.213 86.862 521.37 86.8359C521.531 86.8099 521.679 86.7839 521.815 86.7578C521.955 86.7266 522.07 86.7005 522.159 86.6797L522.362 87.7031C522.242 87.776 522.096 87.8411 521.924 87.8984C521.752 87.9505 521.565 87.9948 521.362 88.0312C521.159 88.0729 520.942 88.1042 520.713 88.125C520.489 88.1458 520.265 88.1562 520.041 88.1562C519.666 88.1562 519.315 88.1042 518.987 88C518.664 87.8906 518.383 87.7214 518.143 87.4922C517.903 87.2578 517.713 86.9583 517.573 86.5938C517.437 86.224 517.37 85.7786 517.37 85.2578V80.6641H515.151V79.5469H517.37V77.5H518.823ZM530.495 86.8359C530.213 87.2526 529.862 87.5781 529.44 87.8125C529.018 88.0417 528.531 88.1562 527.979 88.1562C527.536 88.1562 527.135 88.0885 526.776 87.9531C526.416 87.8125 526.109 87.5964 525.854 87.3047C525.599 87.013 525.401 86.6432 525.26 86.1953C525.125 85.7422 525.057 85.2005 525.057 84.5703V79.5469H526.502V84.5859C526.502 85.0443 526.539 85.4245 526.612 85.7266C526.685 86.0286 526.794 86.2708 526.94 86.4531C527.086 86.6302 527.263 86.7552 527.471 86.8281C527.685 86.901 527.929 86.9375 528.205 86.9375C528.794 86.9375 529.268 86.8177 529.627 86.5781C529.992 86.3385 530.263 86.0156 530.44 85.6094V79.5469H531.893V88H530.58L530.495 86.8359ZM540.174 88C540.117 87.8906 540.07 87.7552 540.034 87.5938C540.002 87.4271 539.979 87.2552 539.963 87.0781C539.817 87.224 539.653 87.362 539.471 87.4922C539.294 87.6224 539.096 87.737 538.877 87.8359C538.664 87.9349 538.435 88.013 538.19 88.0703C537.945 88.1276 537.685 88.1562 537.409 88.1562C536.961 88.1562 536.554 88.0911 536.19 87.9609C535.83 87.8307 535.523 87.6562 535.268 87.4375C535.018 87.2135 534.823 86.9505 534.682 86.6484C534.547 86.3411 534.479 86.0104 534.479 85.6562C534.479 85.1927 534.57 84.7865 534.752 84.4375C534.94 84.0885 535.203 83.7995 535.541 83.5703C535.88 83.3359 536.286 83.1615 536.76 83.0469C537.239 82.9323 537.773 82.875 538.362 82.875H539.94V82.2109C539.94 81.9557 539.893 81.7266 539.799 81.5234C539.705 81.3203 539.573 81.1484 539.401 81.0078C539.229 80.862 539.018 80.75 538.768 80.6719C538.523 80.5938 538.247 80.5547 537.94 80.5547C537.653 80.5547 537.396 80.5911 537.166 80.6641C536.942 80.737 536.752 80.8333 536.596 80.9531C536.44 81.0729 536.317 81.2161 536.229 81.3828C536.146 81.5443 536.104 81.7135 536.104 81.8906H534.651C534.656 81.5833 534.734 81.2812 534.885 80.9844C535.041 80.6875 535.263 80.4219 535.549 80.1875C535.841 79.9479 536.192 79.7552 536.604 79.6094C537.021 79.4635 537.492 79.3906 538.018 79.3906C538.497 79.3906 538.942 79.4505 539.354 79.5703C539.765 79.6849 540.12 79.862 540.416 80.1016C540.718 80.3359 540.955 80.6302 541.127 80.9844C541.299 81.3385 541.385 81.7526 541.385 82.2266V86.1562C541.385 86.4375 541.411 86.737 541.463 87.0547C541.515 87.3672 541.588 87.6406 541.682 87.875V88H540.174ZM537.62 86.8984C537.901 86.8984 538.164 86.862 538.409 86.7891C538.653 86.7161 538.875 86.6198 539.073 86.5C539.276 86.3802 539.45 86.2448 539.596 86.0938C539.742 85.9375 539.857 85.776 539.94 85.6094V83.8984H538.596C537.752 83.8984 537.096 84.0234 536.627 84.2734C536.159 84.5234 535.924 84.9167 535.924 85.4531C535.924 85.6615 535.958 85.8542 536.026 86.0312C536.099 86.2083 536.205 86.362 536.346 86.4922C536.487 86.6172 536.664 86.7161 536.877 86.7891C537.091 86.862 537.338 86.8984 537.62 86.8984ZM547.651 77.5V79.5469H550.87V80.6641H547.651V85.2578C547.651 85.5859 547.692 85.8568 547.776 86.0703C547.859 86.2839 547.974 86.4557 548.12 86.5859C548.265 86.7109 548.432 86.7995 548.62 86.8516C548.812 86.9036 549.015 86.9297 549.229 86.9297C549.385 86.9297 549.547 86.9219 549.713 86.9062C549.88 86.8854 550.041 86.862 550.198 86.8359C550.359 86.8099 550.508 86.7839 550.643 86.7578C550.784 86.7266 550.898 86.7005 550.987 86.6797L551.19 87.7031C551.07 87.776 550.924 87.8411 550.752 87.8984C550.58 87.9505 550.393 87.9948 550.19 88.0312C549.987 88.0729 549.771 88.1042 549.541 88.125C549.317 88.1458 549.093 88.1562 548.87 88.1562C548.495 88.1562 548.143 88.1042 547.815 88C547.492 87.8906 547.211 87.7214 546.971 87.4922C546.732 87.2578 546.541 86.9583 546.401 86.5938C546.265 86.224 546.198 85.7786 546.198 85.2578V80.6641H543.979V79.5469H546.198V77.5H547.651ZM554.065 79.5469H558.385V86.75H561.143V88H554.065V86.75H556.94V80.8047H554.065V79.5469ZM556.752 77.3281C556.752 77.0885 556.823 76.888 556.963 76.7266C557.109 76.5599 557.328 76.4766 557.62 76.4766C557.906 76.4766 558.122 76.5599 558.268 76.7266C558.414 76.888 558.487 77.0885 558.487 77.3281C558.487 77.5625 558.414 77.7578 558.268 77.9141C558.122 78.0703 557.906 78.1484 557.62 78.1484C557.328 78.1484 557.109 78.0703 556.963 77.9141C556.823 77.7578 556.752 77.5625 556.752 77.3281ZM563.041 83.6953C563.041 83.0859 563.13 82.5208 563.307 82C563.484 81.474 563.737 81.0182 564.065 80.6328C564.398 80.2474 564.802 79.9453 565.276 79.7266C565.75 79.5026 566.284 79.3906 566.877 79.3906C567.476 79.3906 568.013 79.5026 568.487 79.7266C568.966 79.9453 569.37 80.2474 569.698 80.6328C570.031 81.0182 570.286 81.474 570.463 82C570.64 82.5208 570.729 83.0859 570.729 83.6953V83.8672C570.729 84.4766 570.64 85.0417 570.463 85.5625C570.286 86.0833 570.031 86.5365 569.698 86.9219C569.37 87.3073 568.968 87.6094 568.495 87.8281C568.021 88.0469 567.487 88.1562 566.893 88.1562C566.294 88.1562 565.755 88.0469 565.276 87.8281C564.802 87.6094 564.398 87.3073 564.065 86.9219C563.737 86.5365 563.484 86.0833 563.307 85.5625C563.13 85.0417 563.041 84.4766 563.041 83.8672V83.6953ZM564.487 83.8672C564.487 84.2839 564.536 84.6823 564.635 85.0625C564.734 85.4375 564.883 85.7682 565.08 86.0547C565.284 86.3411 565.536 86.5677 565.838 86.7344C566.14 86.901 566.492 86.9844 566.893 86.9844C567.289 86.9844 567.635 86.901 567.932 86.7344C568.234 86.5677 568.484 86.3411 568.682 86.0547C568.885 85.7682 569.036 85.4375 569.135 85.0625C569.234 84.6823 569.284 84.2839 569.284 83.8672V83.6953C569.284 83.2839 569.232 82.8906 569.127 82.5156C569.028 82.1354 568.877 81.8021 568.674 81.5156C568.476 81.2292 568.226 81.0026 567.924 80.8359C567.627 80.6641 567.278 80.5781 566.877 80.5781C566.476 80.5781 566.127 80.6641 565.83 80.8359C565.534 81.0026 565.284 81.2292 565.08 81.5156C564.883 81.8021 564.734 82.1354 564.635 82.5156C564.536 82.8906 564.487 83.2839 564.487 83.6953V83.8672ZM574.354 79.5469L574.455 80.7969C574.763 80.3594 575.14 80.0182 575.588 79.7734C576.036 79.5234 576.536 79.3958 577.088 79.3906C577.531 79.3906 577.932 79.4531 578.291 79.5781C578.656 79.7031 578.966 79.8984 579.221 80.1641C579.476 80.4297 579.672 80.7682 579.807 81.1797C579.948 81.5859 580.018 82.0703 580.018 82.6328V88H578.573V82.6641C578.573 82.2891 578.531 81.9714 578.448 81.7109C578.364 81.4505 578.239 81.2396 578.073 81.0781C577.911 80.9167 577.711 80.7995 577.471 80.7266C577.237 80.6536 576.966 80.6172 576.659 80.6172C576.174 80.6172 575.747 80.7396 575.377 80.9844C575.013 81.224 574.721 81.5417 574.502 81.9375V88H573.057V79.5469H574.354Z"
        fill="black"
        id="key-name-special"
    />
    <rect x="52.5" y="0.5"
        width="534"
        height="92"
        stroke="black"
        stroke-width="2"
        id="key-container"
    />
    <path d="M286.016 8.71875L284.75 10.1562V14H283.274V2.625H284.75V8.17969L285.852 6.80469L289.188 2.625H290.945L286.969 7.60156L291.211 14H289.453L286.016 8.71875ZM296.633 14.1562C296.039 14.1562 295.492 14.0547 294.992 13.8516C294.497 13.6484 294.073 13.3646 293.719 13C293.365 12.6354 293.089 12.2031 292.891 11.7031C292.693 11.2031 292.594 10.6589 292.594 10.0703V9.74219C292.594 9.0599 292.703 8.45052 292.922 7.91406C293.141 7.3724 293.43 6.91667 293.789 6.54688C294.154 6.17188 294.565 5.88542 295.024 5.6875C295.487 5.48958 295.961 5.39062 296.445 5.39062C297.055 5.39062 297.586 5.4974 298.039 5.71094C298.497 5.91927 298.878 6.21094 299.18 6.58594C299.482 6.95573 299.706 7.39323 299.852 7.89844C300.003 8.40365 300.078 8.95052 300.078 9.53906V10.1875H294.039C294.055 10.5729 294.128 10.9349 294.258 11.2734C294.393 11.612 294.576 11.9089 294.805 12.1641C295.039 12.4141 295.318 12.612 295.641 12.7578C295.964 12.9036 296.32 12.9766 296.711 12.9766C297.227 12.9766 297.685 12.8724 298.086 12.6641C298.487 12.4557 298.82 12.1797 299.086 11.8359L299.969 12.5234C299.828 12.737 299.651 12.9427 299.438 13.1406C299.229 13.3333 298.987 13.5052 298.711 13.6562C298.435 13.8073 298.122 13.9271 297.774 14.0156C297.425 14.1094 297.044 14.1562 296.633 14.1562ZM296.445 6.57812C296.154 6.57812 295.878 6.63281 295.617 6.74219C295.357 6.84635 295.122 7.0026 294.914 7.21094C294.706 7.41406 294.529 7.66667 294.383 7.96875C294.242 8.26562 294.143 8.60938 294.086 9H298.633V8.89062C298.617 8.60938 298.563 8.33073 298.469 8.05469C298.38 7.77865 298.247 7.53125 298.07 7.3125C297.893 7.09375 297.669 6.91667 297.399 6.78125C297.133 6.64583 296.815 6.57812 296.445 6.57812ZM305.617 11L305.992 12.0234L308.57 5.54688H310.188L305.899 15.3047C305.8 15.5234 305.672 15.7552 305.516 16C305.365 16.2448 305.18 16.4714 304.961 16.6797C304.742 16.888 304.487 17.0625 304.195 17.2031C303.904 17.3438 303.568 17.4141 303.188 17.4141C303.12 17.4141 303.044 17.4089 302.961 17.3984C302.878 17.3932 302.794 17.3828 302.711 17.3672C302.628 17.3568 302.55 17.3438 302.477 17.3281C302.404 17.3125 302.344 17.2995 302.297 17.2891L302.531 16.1094C302.568 16.1094 302.617 16.112 302.68 16.1172C302.742 16.1224 302.807 16.1276 302.875 16.1328C302.943 16.138 303.008 16.1406 303.07 16.1406C303.133 16.1458 303.182 16.1484 303.219 16.1484C303.417 16.1484 303.596 16.0938 303.758 15.9844C303.925 15.875 304.07 15.7448 304.195 15.5938C304.326 15.4427 304.435 15.2865 304.524 15.125C304.617 14.9635 304.69 14.8307 304.742 14.7266L305.32 13.6016L301.68 5.54688H303.297L305.617 11Z"
        fill="black"
        id="key-label"
    />
    <rect y="116"
        width="43"
        height="285"
        fill="#D4D4D4"
        id="line-numbers-gutter"
    />
    <path d="M14.875 366.297L15.4453 360.625H21.2812V362.031H16.6641L16.3438 365.062C16.5677 364.932 16.8359 364.818 17.1484 364.719C17.4609 364.62 17.8229 364.57 18.2344 364.57C18.7604 364.57 19.2318 364.661 19.6484 364.844C20.0651 365.026 20.4193 365.284 20.7109 365.617C21.0026 365.945 21.2266 366.344 21.3828 366.812C21.5391 367.281 21.6172 367.802 21.6172 368.375C21.6172 368.917 21.5443 369.419 21.3984 369.883C21.2526 370.346 21.0312 370.747 20.7344 371.086C20.4427 371.419 20.0729 371.682 19.625 371.875C19.1771 372.062 18.651 372.156 18.0469 372.156C17.5833 372.156 17.1458 372.091 16.7344 371.961C16.3229 371.831 15.9557 371.635 15.6328 371.375C15.3151 371.115 15.0521 370.786 14.8438 370.391C14.6406 369.995 14.513 369.534 14.4609 369.008H15.8359C15.9245 369.654 16.1615 370.143 16.5469 370.477C16.9375 370.81 17.4375 370.977 18.0469 370.977C18.3906 370.977 18.6953 370.917 18.9609 370.797C19.2266 370.672 19.4479 370.497 19.625 370.273C19.8073 370.044 19.9427 369.771 20.0312 369.453C20.125 369.135 20.1719 368.781 20.1719 368.391C20.1719 368.036 20.1198 367.706 20.0156 367.398C19.9167 367.091 19.7708 366.826 19.5781 366.602C19.3854 366.372 19.1484 366.193 18.8672 366.062C18.5859 365.932 18.263 365.867 17.8984 365.867C17.6589 365.867 17.4505 365.885 17.2734 365.922C17.1016 365.953 16.9453 366 16.8047 366.062C16.6641 366.125 16.5312 366.201 16.4062 366.289C16.2865 366.378 16.1615 366.479 16.0312 366.594L14.875 366.297ZM26.4844 371.062C26.4844 370.906 26.5078 370.76 26.5547 370.625C26.6068 370.49 26.6797 370.372 26.7734 370.273C26.8672 370.169 26.9844 370.089 27.125 370.031C27.2656 369.974 27.4297 369.945 27.6172 369.945C27.8047 369.945 27.9688 369.974 28.1094 370.031C28.2552 370.089 28.375 370.169 28.4688 370.273C28.5677 370.372 28.6406 370.49 28.6875 370.625C28.7396 370.76 28.7656 370.906 28.7656 371.062C28.7656 371.214 28.7396 371.357 28.6875 371.492C28.6406 371.622 28.5677 371.737 28.4688 371.836C28.375 371.935 28.2552 372.01 28.1094 372.062C27.9688 372.12 27.8047 372.148 27.6172 372.148C27.4297 372.148 27.2656 372.12 27.125 372.062C26.9844 372.01 26.8672 371.935 26.7734 371.836C26.6797 371.737 26.6068 371.622 26.5547 371.492C26.5078 371.357 26.4844 371.214 26.4844 371.062Z"
        fill="black"
        id="line-number-5"
    />
    <path d="M20.2188 315.18H21.8047V316.359H20.2188V319H18.7734V316.359H13.5859V315.508L18.6797 307.625H20.2188V315.18ZM15.1875 315.18H18.7734V309.547L18.5391 309.984L15.1875 315.18ZM26.4844 318.062C26.4844 317.906 26.5078 317.76 26.5547 317.625C26.6068 317.49 26.6797 317.372 26.7734 317.273C26.8672 317.169 26.9844 317.089 27.125 317.031C27.2656 316.974 27.4297 316.945 27.6172 316.945C27.8047 316.945 27.9688 316.974 28.1094 317.031C28.2552 317.089 28.375 317.169 28.4688 317.273C28.5677 317.372 28.6406 317.49 28.6875 317.625C28.7396 317.76 28.7656 317.906 28.7656 318.062C28.7656 318.214 28.7396 318.357 28.6875 318.492C28.6406 318.622 28.5677 318.737 28.4688 318.836C28.375 318.935 28.2552 319.01 28.1094 319.062C27.9688 319.12 27.8047 319.148 27.6172 319.148C27.4297 319.148 27.2656 319.12 27.125 319.062C26.9844 319.01 26.8672 318.935 26.7734 318.836C26.6797 318.737 26.6068 318.622 26.5547 318.492C26.5078 318.357 26.4844 318.214 26.4844 318.062Z"
        fill="black"
        id="line-number-4"
    />
    <path d="M16.0469 249.617H17.0781C17.4427 249.617 17.763 249.568 18.0391 249.469C18.3203 249.37 18.5547 249.234 18.7422 249.062C18.9349 248.891 19.0807 248.685 19.1797 248.445C19.2786 248.206 19.3281 247.943 19.3281 247.656C19.3281 246.995 19.1589 246.497 18.8203 246.164C18.4818 245.826 17.987 245.656 17.3359 245.656C17.0286 245.656 16.7474 245.703 16.4922 245.797C16.2422 245.885 16.026 246.016 15.8438 246.188C15.6667 246.359 15.5286 246.565 15.4297 246.805C15.3307 247.044 15.2812 247.312 15.2812 247.609H13.8281C13.8281 247.177 13.9115 246.771 14.0781 246.391C14.25 246.005 14.4896 245.672 14.7969 245.391C15.1042 245.104 15.4714 244.88 15.8984 244.719C16.3307 244.552 16.8099 244.469 17.3359 244.469C17.8464 244.469 18.3125 244.539 18.7344 244.68C19.1562 244.815 19.5182 245.018 19.8203 245.289C20.1224 245.56 20.3568 245.896 20.5234 246.297C20.6901 246.698 20.7734 247.161 20.7734 247.688C20.7734 247.906 20.7396 248.133 20.6719 248.367C20.6042 248.602 20.5 248.831 20.3594 249.055C20.2188 249.273 20.0365 249.482 19.8125 249.68C19.5938 249.872 19.3307 250.034 19.0234 250.164C19.3932 250.284 19.7005 250.44 19.9453 250.633C20.1953 250.826 20.3932 251.042 20.5391 251.281C20.6901 251.521 20.7943 251.773 20.8516 252.039C20.9141 252.305 20.9453 252.568 20.9453 252.828C20.9453 253.359 20.8542 253.831 20.6719 254.242C20.4896 254.654 20.237 255.003 19.9141 255.289C19.5911 255.57 19.2083 255.786 18.7656 255.938C18.3281 256.083 17.8542 256.156 17.3438 256.156C16.8438 256.156 16.3724 256.086 15.9297 255.945C15.4922 255.805 15.112 255.599 14.7891 255.328C14.4661 255.057 14.2083 254.727 14.0156 254.336C13.8281 253.945 13.7344 253.5 13.7344 253H15.1797C15.1797 253.297 15.2292 253.568 15.3281 253.812C15.4323 254.057 15.5781 254.266 15.7656 254.438C15.9531 254.609 16.1797 254.742 16.4453 254.836C16.7161 254.93 17.0156 254.977 17.3438 254.977C17.6719 254.977 17.9688 254.935 18.2344 254.852C18.5 254.763 18.7266 254.63 18.9141 254.453C19.1016 254.276 19.2448 254.057 19.3438 253.797C19.4479 253.531 19.5 253.219 19.5 252.859C19.5 252.505 19.4401 252.201 19.3203 251.945C19.2057 251.685 19.0417 251.469 18.8281 251.297C18.6198 251.125 18.3646 250.997 18.0625 250.914C17.7656 250.831 17.4375 250.789 17.0781 250.789H16.0469V249.617ZM26.4844 255.062C26.4844 254.906 26.5078 254.76 26.5547 254.625C26.6068 254.49 26.6797 254.372 26.7734 254.273C26.8672 254.169 26.9844 254.089 27.125 254.031C27.2656 253.974 27.4297 253.945 27.6172 253.945C27.8047 253.945 27.9688 253.974 28.1094 254.031C28.2552 254.089 28.375 254.169 28.4688 254.273C28.5677 254.372 28.6406 254.49 28.6875 254.625C28.7396 254.76 28.7656 254.906 28.7656 255.062C28.7656 255.214 28.7396 255.357 28.6875 255.492C28.6406 255.622 28.5677 255.737 28.4688 255.836C28.375 255.935 28.2552 256.01 28.1094 256.062C27.9688 256.12 27.8047 256.148 27.6172 256.148C27.4297 256.148 27.2656 256.12 27.125 256.062C26.9844 256.01 26.8672 255.935 26.7734 255.836C26.6797 255.737 26.6068 255.622 26.5547 255.492C26.5078 255.357 26.4844 255.214 26.4844 255.062Z"
        fill="black"
        id="line-number-3"
    />
    <path d="M21.3359 203H13.8828V201.961L17.6094 197.82C17.9427 197.451 18.2214 197.122 18.4453 196.836C18.6693 196.549 18.849 196.286 18.9844 196.047C19.1198 195.802 19.2161 195.573 19.2734 195.359C19.3307 195.141 19.3594 194.917 19.3594 194.688C19.3594 194.406 19.3125 194.143 19.2188 193.898C19.1302 193.648 18.9974 193.432 18.8203 193.25C18.6484 193.068 18.4375 192.924 18.1875 192.82C17.9427 192.711 17.6641 192.656 17.3516 192.656C16.9714 192.656 16.6406 192.711 16.3594 192.82C16.0833 192.93 15.8516 193.086 15.6641 193.289C15.4818 193.487 15.3438 193.729 15.25 194.016C15.1615 194.302 15.1172 194.622 15.1172 194.977H13.6641C13.6641 194.497 13.7474 194.047 13.9141 193.625C14.0807 193.198 14.3203 192.826 14.6328 192.508C14.9505 192.19 15.3359 191.938 15.7891 191.75C16.2474 191.562 16.7682 191.469 17.3516 191.469C17.888 191.469 18.3698 191.549 18.7969 191.711C19.2292 191.867 19.5938 192.086 19.8906 192.367C20.1875 192.648 20.4141 192.982 20.5703 193.367C20.7318 193.753 20.8125 194.172 20.8125 194.625C20.8125 194.964 20.7552 195.299 20.6406 195.633C20.526 195.961 20.3698 196.286 20.1719 196.609C19.9792 196.932 19.7526 197.253 19.4922 197.57C19.237 197.883 18.9661 198.195 18.6797 198.508L15.625 201.82H21.3359V203ZM26.4844 202.062C26.4844 201.906 26.5078 201.76 26.5547 201.625C26.6068 201.49 26.6797 201.372 26.7734 201.273C26.8672 201.169 26.9844 201.089 27.125 201.031C27.2656 200.974 27.4297 200.945 27.6172 200.945C27.8047 200.945 27.9688 200.974 28.1094 201.031C28.2552 201.089 28.375 201.169 28.4688 201.273C28.5677 201.372 28.6406 201.49 28.6875 201.625C28.7396 201.76 28.7656 201.906 28.7656 202.062C28.7656 202.214 28.7396 202.357 28.6875 202.492C28.6406 202.622 28.5677 202.737 28.4688 202.836C28.375 202.935 28.2552 203.01 28.1094 203.062C27.9688 203.12 27.8047 203.148 27.6172 203.148C27.4297 203.148 27.2656 203.12 27.125 203.062C26.9844 203.01 26.8672 202.935 26.7734 202.836C26.6797 202.737 26.6068 202.622 26.5547 202.492C26.5078 202.357 26.4844 202.214 26.4844 202.062Z"
        fill="black"
        id="line-number-2"
    />
    <path d="M19.0469 150H17.6016V140.469L14.625 141.602V140.281L18.9297 138.625H19.0469V150ZM26.4844 149.062C26.4844 148.906 26.5078 148.76 26.5547 148.625C26.6068 148.49 26.6797 148.372 26.7734 148.273C26.8672 148.169 26.9844 148.089 27.125 148.031C27.2656 147.974 27.4297 147.945 27.6172 147.945C27.8047 147.945 27.9688 147.974 28.1094 148.031C28.2552 148.089 28.375 148.169 28.4688 148.273C28.5677 148.372 28.6406 148.49 28.6875 148.625C28.7396 148.76 28.7656 148.906 28.7656 149.062C28.7656 149.214 28.7396 149.357 28.6875 149.492C28.6406 149.622 28.5677 149.737 28.4688 149.836C28.375 149.935 28.2552 150.01 28.1094 150.062C27.9688 150.12 27.8047 150.148 27.6172 150.148C27.4297 150.148 27.2656 150.12 27.125 150.062C26.9844 150.01 26.8672 149.935 26.7734 149.836C26.6797 149.737 26.6068 149.622 26.5547 149.492C26.5078 149.357 26.4844 149.214 26.4844 149.062Z"
        fill="black"
        id="line-number-1"
    />
    <path d="M66.2929 343.707C66.6834 344.098 67.3166 344.098 67.7071 343.707L74.0711 337.343C74.4616 336.953 74.4616 336.319 74.0711 335.929C73.6805 335.538 73.0474 335.538 72.6569 335.929L67 341.586L61.3431 335.929C60.9526 335.538 60.3195 335.538 59.9289 335.929C59.5384 336.319 59.5384 336.953 59.9289 337.343L66.2929 343.707ZM66 323V343H68V323H66Z"
        fill="none"
        id="index-10"
    />
    <path d="M209.293 285.707C209.683 286.098 210.317 286.098 210.707 285.707L217.071 279.343C217.462 278.953 217.462 278.319 217.071 277.929C216.681 277.538 216.047 277.538 215.657 277.929L210 283.586L204.343 277.929C203.953 277.538 203.319 277.538 202.929 277.929C202.538 278.319 202.538 278.953 202.929 279.343L209.293 285.707ZM209 265V285H211V265H209Z"
        fill="none"
        id="index-9"
    />
    <path d="M181.293 285.707C181.683 286.098 182.317 286.098 182.707 285.707L189.071 279.343C189.462 278.953 189.462 278.319 189.071 277.929C188.681 277.538 188.047 277.538 187.657 277.929L182 283.586L176.343 277.929C175.953 277.538 175.319 277.538 174.929 277.929C174.538 278.319 174.538 278.953 174.929 279.343L181.293 285.707ZM181 265V285H183V265H181Z"
        fill="none"
        id="index-8"
    />
    <path d="M526.293 226.707C526.683 227.098 527.317 227.098 527.707 226.707L534.071 220.343C534.462 219.953 534.462 219.319 534.071 218.929C533.681 218.538 533.047 218.538 532.657 218.929L527 224.586L521.343 218.929C520.953 218.538 520.319 218.538 519.929 218.929C519.538 219.319 519.538 219.953 519.929 220.343L526.293 226.707ZM526 206V226H528V206H526Z"
        fill="none"
        id="index-7"
    />
    <path d="M397.293 226.707C397.683 227.098 398.317 227.098 398.707 226.707L405.071 220.343C405.462 219.953 405.462 219.319 405.071 218.929C404.681 218.538 404.047 218.538 403.657 218.929L398 224.586L392.343 218.929C391.953 218.538 391.319 218.538 390.929 218.929C390.538 219.319 390.538 219.953 390.929 220.343L397.293 226.707ZM397 206V226H399V206H397Z"
        fill="none"
        id="index-6"
    />
    <path d="M167.698 203.131C168.089 202.74 168.089 202.107 167.698 201.716L161.334 195.352C160.944 194.962 160.31 194.962 159.92 195.352C159.529 195.743 159.529 196.376 159.92 196.767L165.577 202.424L159.92 208.08C159.529 208.471 159.529 209.104 159.92 209.495C160.31 209.885 160.944 209.885 161.334 209.495L167.698 203.131ZM146.991 203.424H166.991V201.424H146.991V203.424Z"
        fill="none"
        id="index-5"
    />
    <path d="M586.293 116.707C586.683 117.098 587.317 117.098 587.707 116.707L594.071 110.343C594.462 109.953 594.462 109.319 594.071 108.929C593.681 108.538 593.047 108.538 592.657 108.929L587 114.586L581.343 108.929C580.953 108.538 580.319 108.538 579.929 108.929C579.538 109.319 579.538 109.953 579.929 110.343L586.293 116.707ZM586 96V116H588V96H586Z"
        fill="none"
        id="index-4"
    />
    <path d="M526.293 116.707C526.683 117.098 527.317 117.098 527.707 116.707L534.071 110.343C534.462 109.953 534.462 109.319 534.071 108.929C533.681 108.538 533.047 108.538 532.657 108.929L527 114.586L521.343 108.929C520.953 108.538 520.319 108.538 519.929 108.929C519.538 109.319 519.538 109.953 519.929 110.343L526.293 116.707ZM526 96V116H528V96H526Z"
        fill="none"
        id="index-3"
    />
    <path d="M498.293 116.707C498.683 117.098 499.317 117.098 499.707 116.707L506.071 110.343C506.462 109.953 506.462 109.319 506.071 108.929C505.681 108.538 505.047 108.538 504.657 108.929L499 114.586L493.343 108.929C492.953 108.538 492.319 108.538 491.929 108.929C491.538 109.319 491.538 109.953 491.929 110.343L498.293 116.707ZM498 96V116H500V96H498Z"
        fill="none"
        id="index-2"
    />
    <path d="M397.293 116.707C397.683 117.098 398.317 117.098 398.707 116.707L405.071 110.343C405.462 109.953 405.462 109.319 405.071 108.929C404.681 108.538 404.047 108.538 403.657 108.929L398 114.586L392.343 108.929C391.953 108.538 391.319 108.538 390.929 108.929C390.538 109.319 390.538 109.953 390.929 110.343L397.293 116.707ZM397 96V116H399V96H397Z"
        fill="none"
        id="index-1"
    />
    <path d="M167.293 116.707C167.683 117.098 168.317 117.098 168.707 116.707L175.071 110.343C175.462 109.953 175.462 109.319 175.071 108.929C174.681 108.538 174.047 108.538 173.657 108.929L168 114.586L162.343 108.929C161.953 108.538 161.319 108.538 160.929 108.929C160.538 109.319 160.538 109.953 160.929 110.343L167.293 116.707ZM167 96V116H169V96H167Z"
        fill="none"
        id="index-0"
    />
</svg>
